<?xml version="1.0" encoding="UTF-8"?>
<svg xmlns="http://www.w3.org/2000/svg" xmlns:xlink="http://www.w3.org/1999/xlink" version="1.1" viewBox="0 0 800 800">
  <!-- Generator: Adobe Illustrator 29.8.6, SVG Export Plug-In . SVG Version: 2.1.1 Build 1)  -->
  <defs>
    <style>
      .st0 {
        fill: #1a1a18;
      }
    </style>
  </defs>
  <g id="Layer_1">
    <g id="Layer_11" data-name="Layer_1">
      <g id="Layer_2">
        <circle class="st0" cx="399.8" cy="401.7" r="354.8"/>
      </g>
    </g>
  </g>
  <g id="Layer_21" data-name="Layer_2">
    <g id="dots">
      <circle cx="359.50" cy="462.20" r="3.83" fill="#41abf8"/>
      <circle cx="382.50" cy="472.40" r="3.81" fill="#41abf8"/>
      <circle cx="407.80" cy="474.00" r="3.82" fill="#41abf8"/>
      <circle cx="432.00" cy="467.00" r="3.80" fill="#41abf8"/>
      <circle cx="452.35" cy="452.05" r="3.82" fill="#41abf8"/>
      <circle cx="466.40" cy="431.10" r="3.81" fill="#41abf8"/>
      <circle cx="472.35" cy="406.45" r="3.86" fill="#41abf8"/>
      <circle cx="469.65" cy="381.35" r="3.80" fill="#41abf8"/>
      <circle cx="458.45" cy="358.75" r="3.79" fill="#41abf8"/>
      <circle cx="440.20" cy="341.30" r="3.83" fill="#41abf8"/>
      <circle cx="417.10" cy="331.10" r="3.81" fill="#41abf8"/>
      <circle cx="391.90" cy="329.50" r="3.82" fill="#41abf8"/>
      <circle cx="367.70" cy="336.50" r="3.80" fill="#41abf8"/>
      <circle cx="347.25" cy="351.45" r="3.82" fill="#41abf8"/>
      <circle cx="333.30" cy="372.40" r="3.81" fill="#41abf8"/>
      <circle cx="327.35" cy="396.95" r="3.86" fill="#41abf8"/>
      <circle cx="330.05" cy="422.15" r="3.80" fill="#41abf8"/>
      <circle cx="341.15" cy="444.75" r="3.79" fill="#41abf8"/>
      <circle cx="342.70" cy="458.90" r="4.24" fill="#44a9f8"/>
      <circle cx="365.65" cy="474.95" r="4.23" fill="#44a9f8"/>
      <circle cx="392.75" cy="482.15" r="4.26" fill="#44a9f8"/>
      <circle cx="420.70" cy="479.80" r="4.24" fill="#44a9f8"/>
      <circle cx="446.15" cy="467.95" r="4.23" fill="#44a9f8"/>
      <circle cx="466.05" cy="448.05" r="4.23" fill="#44a9f8"/>
      <circle cx="477.90" cy="422.70" r="4.24" fill="#44a9f8"/>
      <circle cx="480.25" cy="394.65" r="4.26" fill="#44a9f8"/>
      <circle cx="473.05" cy="367.55" r="4.23" fill="#44a9f8"/>
      <circle cx="456.90" cy="344.60" r="4.24" fill="#44a9f8"/>
      <circle cx="434.05" cy="328.55" r="4.23" fill="#44a9f8"/>
      <circle cx="406.85" cy="321.25" r="4.26" fill="#44a9f8"/>
      <circle cx="378.90" cy="323.70" r="4.24" fill="#44a9f8"/>
      <circle cx="353.55" cy="335.55" r="4.23" fill="#44a9f8"/>
      <circle cx="333.65" cy="355.45" r="4.23" fill="#44a9f8"/>
      <circle cx="321.80" cy="380.80" r="4.24" fill="#44a9f8"/>
      <circle cx="319.35" cy="408.85" r="4.26" fill="#44a9f8"/>
      <circle cx="326.65" cy="435.95" r="4.23" fill="#44a9f8"/>
      <circle cx="325.25" cy="451.55" r="4.76" fill="#46a6f9"/>
      <circle cx="346.80" cy="474.10" r="4.72" fill="#46a6f9"/>
      <circle cx="374.75" cy="487.85" r="4.75" fill="#46a6f9"/>
      <circle cx="405.70" cy="491.30" r="4.71" fill="#46a6f9"/>
      <circle cx="436.00" cy="483.90" r="4.70" fill="#46a6f9"/>
      <circle cx="461.90" cy="466.60" r="4.74" fill="#46a6f9"/>
      <circle cx="480.40" cy="441.40" r="4.70" fill="#46a6f9"/>
      <circle cx="489.00" cy="411.50" r="4.73" fill="#46a6f9"/>
      <circle cx="487.00" cy="380.40" r="4.73" fill="#46a6f9"/>
      <circle cx="474.45" cy="351.95" r="4.76" fill="#46a6f9"/>
      <circle cx="452.90" cy="329.40" r="4.72" fill="#46a6f9"/>
      <circle cx="424.95" cy="315.55" r="4.75" fill="#46a6f9"/>
      <circle cx="393.90" cy="312.20" r="4.71" fill="#46a6f9"/>
      <circle cx="363.70" cy="319.60" r="4.70" fill="#46a6f9"/>
      <circle cx="337.80" cy="336.90" r="4.74" fill="#46a6f9"/>
      <circle cx="319.30" cy="362.10" r="4.70" fill="#46a6f9"/>
      <circle cx="310.60" cy="392.00" r="4.73" fill="#46a6f9"/>
      <circle cx="312.70" cy="423.10" r="4.73" fill="#46a6f9"/>
      <circle cx="307.65" cy="439.85" r="5.27" fill="#49a4f9"/>
      <circle cx="326.25" cy="469.15" r="5.24" fill="#49a4f9"/>
      <circle cx="353.85" cy="490.25" r="5.26" fill="#49a4f9"/>
      <circle cx="386.80" cy="500.60" r="5.25" fill="#49a4f9"/>
      <circle cx="421.35" cy="499.05" r="5.28" fill="#49a4f9"/>
      <circle cx="453.40" cy="485.90" r="5.22" fill="#49a4f9"/>
      <circle cx="478.90" cy="462.40" r="5.28" fill="#49a4f9"/>
      <circle cx="494.90" cy="431.70" r="5.25" fill="#49a4f9"/>
      <circle cx="499.45" cy="397.45" r="5.26" fill="#49a4f9"/>
      <circle cx="491.95" cy="363.65" r="5.27" fill="#49a4f9"/>
      <circle cx="473.35" cy="334.35" r="5.24" fill="#49a4f9"/>
      <circle cx="445.85" cy="313.25" r="5.26" fill="#49a4f9"/>
      <circle cx="412.80" cy="302.90" r="5.25" fill="#49a4f9"/>
      <circle cx="378.25" cy="304.45" r="5.28" fill="#49a4f9"/>
      <circle cx="346.20" cy="317.60" r="5.22" fill="#49a4f9"/>
      <circle cx="320.70" cy="341.00" r="5.28" fill="#49a4f9"/>
      <circle cx="304.70" cy="371.80" r="5.25" fill="#49a4f9"/>
      <circle cx="300.15" cy="406.05" r="5.26" fill="#49a4f9"/>
      <circle cx="291.15" cy="423.35" r="5.86" fill="#4ca0f9"/>
      <circle cx="305.10" cy="459.30" r="5.83" fill="#4ca0f9"/>
      <circle cx="330.45" cy="488.15" r="5.83" fill="#4ca0f9"/>
      <circle cx="364.20" cy="506.70" r="5.82" fill="#4ca0f9"/>
      <circle cx="402.25" cy="512.55" r="5.85" fill="#4ca0f9"/>
      <circle cx="440.00" cy="505.10" r="5.79" fill="#4ca0f9"/>
      <circle cx="472.85" cy="485.05" r="5.81" fill="#4ca0f9"/>
      <circle cx="497.00" cy="455.00" r="5.82" fill="#4ca0f9"/>
      <circle cx="509.30" cy="418.60" r="5.87" fill="#4ca0f9"/>
      <circle cx="508.45" cy="380.15" r="5.86" fill="#4ca1f9"/>
      <circle cx="494.50" cy="344.20" r="5.83" fill="#4ca0f9"/>
      <circle cx="469.15" cy="315.35" r="5.83" fill="#4ca1f9"/>
      <circle cx="435.40" cy="296.80" r="5.82" fill="#4ca0f9"/>
      <circle cx="397.45" cy="290.95" r="5.85" fill="#4ca0f9"/>
      <circle cx="359.60" cy="298.40" r="5.79" fill="#4ca0f9"/>
      <circle cx="326.75" cy="318.45" r="5.81" fill="#4ca1f9"/>
      <circle cx="302.70" cy="348.40" r="5.82" fill="#4ca1f9"/>
      <circle cx="290.30" cy="384.90" r="5.87" fill="#4ca0f9"/>
      <circle cx="276.70" cy="401.70" r="6.50" fill="#4f9df9"/>
      <circle cx="284.10" cy="443.90" r="6.48" fill="#4f9df9"/>
      <circle cx="305.45" cy="480.85" r="6.46" fill="#4f9df9"/>
      <circle cx="338.25" cy="508.35" r="6.52" fill="#4f9df9"/>
      <circle cx="378.40" cy="523.00" r="6.49" fill="#4f9df9"/>
      <circle cx="421.20" cy="523.00" r="6.49" fill="#4f9df9"/>
      <circle cx="461.35" cy="508.35" r="6.52" fill="#4f9df9"/>
      <circle cx="494.15" cy="480.85" r="6.46" fill="#4f9df9"/>
      <circle cx="515.50" cy="443.90" r="6.48" fill="#4f9df9"/>
      <circle cx="522.90" cy="401.70" r="6.50" fill="#4f9df9"/>
      <circle cx="515.50" cy="359.60" r="6.48" fill="#4f9df9"/>
      <circle cx="494.15" cy="322.55" r="6.46" fill="#4f9df9"/>
      <circle cx="461.35" cy="295.15" r="6.52" fill="#4f9df9"/>
      <circle cx="421.20" cy="280.50" r="6.49" fill="#4f9df9"/>
      <circle cx="378.40" cy="280.50" r="6.49" fill="#4f9df9"/>
      <circle cx="338.25" cy="295.15" r="6.52" fill="#4f9df9"/>
      <circle cx="305.45" cy="322.55" r="6.46" fill="#4f9df9"/>
      <circle cx="284.10" cy="359.60" r="6.48" fill="#4f9df9"/>
      <circle cx="265.70" cy="375.10" r="7.24" fill="#5399f9"/>
      <circle cx="264.60" cy="422.50" r="7.18" fill="#5399f9"/>
      <circle cx="279.90" cy="467.50" r="7.21" fill="#5399f9"/>
      <circle cx="309.65" cy="504.55" r="7.23" fill="#5399f9"/>
      <circle cx="350.20" cy="529.30" r="7.19" fill="#5399f9"/>
      <circle cx="396.90" cy="538.50" r="7.20" fill="#5399f9"/>
      <circle cx="443.80" cy="531.30" r="7.18" fill="#5399f9"/>
      <circle cx="485.50" cy="508.40" r="7.18" fill="#5399f9"/>
      <circle cx="516.75" cy="472.65" r="7.20" fill="#5399f9"/>
      <circle cx="534.00" cy="428.40" r="7.24" fill="#5399f9"/>
      <circle cx="535.00" cy="380.90" r="7.18" fill="#5399f9"/>
      <circle cx="519.80" cy="336.00" r="7.21" fill="#5399f9"/>
      <circle cx="490.05" cy="298.95" r="7.23" fill="#5399f9"/>
      <circle cx="449.40" cy="274.20" r="7.19" fill="#5399f9"/>
      <circle cx="402.80" cy="265.00" r="7.20" fill="#5399f9"/>
      <circle cx="355.80" cy="272.20" r="7.18" fill="#5399f9"/>
      <circle cx="314.20" cy="295.00" r="7.18" fill="#5399f9"/>
      <circle cx="282.85" cy="330.75" r="7.20" fill="#5399f9"/>
      <circle cx="259.40" cy="343.60" r="8.02" fill="#5795fa"/>
      <circle cx="247.95" cy="395.15" r="7.96" fill="#5795fa"/>
      <circle cx="254.80" cy="447.50" r="7.97" fill="#5795fa"/>
      <circle cx="279.25" cy="494.25" r="7.99" fill="#5795fa"/>
      <circle cx="318.20" cy="530.00" r="7.96" fill="#5795fa"/>
      <circle cx="366.90" cy="550.10" r="7.98" fill="#5795fa"/>
      <circle cx="419.65" cy="552.45" r="8.02" fill="#5795fa"/>
      <circle cx="470.00" cy="536.60" r="8.01" fill="#5795fa"/>
      <circle cx="511.90" cy="504.40" r="8.00" fill="#5795fa"/>
      <circle cx="540.20" cy="459.90" r="8.02" fill="#5795fa"/>
      <circle cx="551.75" cy="408.35" r="7.96" fill="#5795fa"/>
      <circle cx="544.80" cy="356.00" r="7.97" fill="#5795fa"/>
      <circle cx="520.45" cy="309.15" r="7.99" fill="#5795fa"/>
      <circle cx="481.50" cy="273.50" r="7.96" fill="#5795fa"/>
      <circle cx="432.80" cy="253.30" r="7.98" fill="#5795fa"/>
      <circle cx="379.95" cy="251.05" r="8.02" fill="#5795fa"/>
      <circle cx="329.60" cy="266.90" r="8.01" fill="#5795fa"/>
      <circle cx="287.80" cy="299.10" r="8.00" fill="#5795fa"/>
      <circle cx="259.40" cy="307.90" r="8.88" fill="#5c90fa"/>
      <circle cx="235.70" cy="361.60" r="8.85" fill="#5c90fa"/>
      <circle cx="231.95" cy="420.15" r="8.90" fill="#5c90fa"/>
      <circle cx="248.35" cy="476.45" r="8.88" fill="#5c90fa"/>
      <circle cx="283.05" cy="523.75" r="8.91" fill="#5c90fa"/>
      <circle cx="331.75" cy="556.35" r="8.89" fill="#5c90fa"/>
      <circle cx="388.80" cy="570.20" r="8.92" fill="#5c90fa"/>
      <circle cx="447.10" cy="563.90" r="8.86" fill="#5c90fa"/>
      <circle cx="499.65" cy="537.95" r="8.87" fill="#5c90fa"/>
      <circle cx="540.20" cy="495.60" r="8.88" fill="#5c90fa"/>
      <circle cx="563.90" cy="441.90" r="8.85" fill="#5c90fa"/>
      <circle cx="567.65" cy="383.35" r="8.90" fill="#5c90fa"/>
      <circle cx="551.35" cy="327.05" r="8.88" fill="#5c90fa"/>
      <circle cx="516.65" cy="279.75" r="8.91" fill="#5c90fa"/>
      <circle cx="467.85" cy="247.15" r="8.89" fill="#5c90fa"/>
      <circle cx="410.80" cy="233.30" r="8.92" fill="#5c90fa"/>
      <circle cx="352.60" cy="239.60" r="8.86" fill="#5c90fa"/>
      <circle cx="299.95" cy="265.55" r="8.87" fill="#5c90fa"/>
      <circle cx="267.10" cy="269.10" r="9.90" fill="#6187fa"/>
      <circle cx="229.75" cy="322.45" r="9.87" fill="#6187fa"/>
      <circle cx="212.85" cy="385.35" r="9.89" fill="#6187fa"/>
      <circle cx="218.55" cy="450.35" r="9.88" fill="#6187fa"/>
      <circle cx="246.10" cy="509.30" r="9.90" fill="#6187fa"/>
      <circle cx="292.20" cy="555.40" r="9.90" fill="#6187fa"/>
      <circle cx="351.25" cy="582.95" r="9.88" fill="#6187fa"/>
      <circle cx="416.15" cy="588.65" r="9.89" fill="#6187fa"/>
      <circle cx="479.15" cy="571.85" r="9.87" fill="#6187fa"/>
      <circle cx="532.50" cy="534.40" r="9.90" fill="#6187fa"/>
      <circle cx="569.85" cy="481.05" r="9.87" fill="#6187fa"/>
      <circle cx="586.75" cy="418.15" r="9.89" fill="#6187fa"/>
      <circle cx="581.05" cy="353.15" r="9.88" fill="#6187fa"/>
      <circle cx="553.50" cy="294.10" r="9.90" fill="#6187fa"/>
      <circle cx="507.40" cy="248.00" r="9.90" fill="#6187fa"/>
      <circle cx="448.35" cy="220.45" r="9.88" fill="#6187fa"/>
      <circle cx="383.45" cy="214.85" r="9.89" fill="#6187fa"/>
      <circle cx="320.45" cy="231.65" r="9.87" fill="#6187fa"/>
      <circle cx="284.00" cy="228.40" r="10.96" fill="#6777fb"/>
      <circle cx="231.65" cy="278.45" r="10.95" fill="#6777fb"/>
      <circle cx="199.65" cy="343.35" r="10.98" fill="#6777fb"/>
      <circle cx="191.75" cy="415.35" r="10.98" fill="#6777fb"/>
      <circle cx="208.95" cy="485.65" r="10.99" fill="#6777fb"/>
      <circle cx="249.20" cy="545.90" r="10.96" fill="#6777fb"/>
      <circle cx="307.65" cy="588.75" r="10.98" fill="#6777fb"/>
      <circle cx="377.10" cy="609.00" r="10.97" fill="#6777fb"/>
      <circle cx="449.40" cy="604.20" r="11.01" fill="#6777fb"/>
      <circle cx="515.70" cy="575.10" r="10.96" fill="#6777fb"/>
      <circle cx="567.95" cy="525.05" r="10.95" fill="#6777fb"/>
      <circle cx="599.95" cy="460.15" r="10.98" fill="#6777fb"/>
      <circle cx="607.85" cy="388.15" r="10.98" fill="#6777fb"/>
      <circle cx="590.65" cy="317.85" r="10.99" fill="#6777fb"/>
      <circle cx="550.50" cy="257.60" r="10.96" fill="#6777fb"/>
      <circle cx="492.05" cy="214.75" r="10.98" fill="#6777fb"/>
      <circle cx="422.50" cy="194.50" r="10.97" fill="#6777fb"/>
      <circle cx="350.30" cy="199.30" r="11.01" fill="#6777fb"/>
      <circle cx="311.15" cy="187.65" r="12.17" fill="#6e65fc"/>
      <circle cx="243.30" cy="231.00" r="12.18" fill="#6e65fc"/>
      <circle cx="194.30" cy="294.70" r="12.17" fill="#6e65fc"/>
      <circle cx="170.10" cy="371.50" r="12.21" fill="#6e65fc"/>
      <circle cx="173.60" cy="451.90" r="12.18" fill="#6e65fc"/>
      <circle cx="204.45" cy="526.25" r="12.16" fill="#6e65fc"/>
      <circle cx="258.80" cy="585.50" r="12.20" fill="#6e65fc"/>
      <circle cx="330.15" cy="622.65" r="12.21" fill="#6e65fc"/>
      <circle cx="409.95" cy="633.25" r="12.16" fill="#6e65fc"/>
      <circle cx="488.45" cy="615.75" r="12.17" fill="#6e65fc"/>
      <circle cx="556.40" cy="572.50" r="12.18" fill="#6e65fc"/>
      <circle cx="605.30" cy="508.70" r="12.17" fill="#6e65fc"/>
      <circle cx="629.50" cy="432.00" r="12.21" fill="#6e65fc"/>
      <circle cx="626.00" cy="351.60" r="12.18" fill="#6e65fc"/>
      <circle cx="595.25" cy="277.25" r="12.16" fill="#6e65fc"/>
      <circle cx="540.90" cy="218.00" r="12.20" fill="#6e65fc"/>
      <circle cx="469.55" cy="180.85" r="12.21" fill="#6e65fc"/>
      <circle cx="389.75" cy="170.25" r="12.16" fill="#6e65fc"/>
      <circle cx="349.65" cy="149.25" r="13.51" fill="#7551fd"/>
      <circle cx="266.30" cy="181.70" r="13.55" fill="#7551fd"/>
      <circle cx="199.05" cy="240.55" r="13.52" fill="#7551fd"/>
      <circle cx="156.05" cy="318.95" r="13.57" fill="#7551fd"/>
      <circle cx="142.40" cy="407.40" r="13.50" fill="#7551fd"/>
      <circle cx="159.90" cy="495.00" r="13.52" fill="#7551fd"/>
      <circle cx="206.30" cy="571.50" r="13.54" fill="#7551fd"/>
      <circle cx="276.00" cy="627.40" r="13.56" fill="#7551fd"/>
      <circle cx="360.70" cy="656.10" r="13.56" fill="#7551fd"/>
      <circle cx="450.05" cy="654.25" r="13.51" fill="#7551fd"/>
      <circle cx="533.40" cy="621.80" r="13.55" fill="#7551fd"/>
      <circle cx="600.55" cy="562.85" r="13.52" fill="#7551fd"/>
      <circle cx="643.55" cy="484.45" r="13.57" fill="#7551fd"/>
      <circle cx="657.20" cy="396.10" r="13.50" fill="#7551fd"/>
      <circle cx="639.80" cy="308.40" r="13.52" fill="#7551fd"/>
      <circle cx="593.30" cy="232.00" r="13.54" fill="#7551fd"/>
      <circle cx="523.60" cy="176.10" r="13.56" fill="#7551fd"/>
      <circle cx="438.90" cy="147.30" r="13.56" fill="#7551fd"/>
      <circle cx="399.80" cy="115.80" r="15.10" fill="#7d3bfe"/>
      <circle cx="302.05" cy="132.95" r="15.06" fill="#7d3bfe"/>
      <circle cx="215.95" cy="182.65" r="15.05" fill="#7d3bfe"/>
      <circle cx="152.15" cy="258.75" r="15.08" fill="#7d3bfe"/>
      <circle cx="118.10" cy="352.10" r="15.03" fill="#7d3bfe"/>
      <circle cx="118.10" cy="451.40" r="15.03" fill="#7d3bfe"/>
      <circle cx="152.15" cy="544.75" r="15.08" fill="#7d3bfe"/>
      <circle cx="215.95" cy="620.85" r="15.05" fill="#7d3bfe"/>
      <circle cx="302.05" cy="670.45" r="15.06" fill="#7d3bfe"/>
      <circle cx="399.80" cy="687.70" r="15.10" fill="#7d3bfe"/>
      <circle cx="497.65" cy="670.45" r="15.06" fill="#7d3bfe"/>
      <circle cx="583.65" cy="620.85" r="15.05" fill="#7d3bfe"/>
      <circle cx="647.45" cy="544.75" r="15.08" fill="#7d3bfe"/>
      <circle cx="681.50" cy="451.40" r="15.03" fill="#7d3bfe"/>
      <circle cx="681.50" cy="352.10" r="15.03" fill="#7d3bfe"/>
      <circle cx="647.45" cy="258.75" r="15.08" fill="#7d3bfe"/>
      <circle cx="583.65" cy="182.65" r="15.05" fill="#7d3bfe"/>
      <circle cx="497.65" cy="132.95" r="15.06" fill="#7d3bfe"/>
    </g>
  </g>
</svg>