<?xml version="1.0" encoding="UTF-8"?>
<svg xmlns="http://www.w3.org/2000/svg" xmlns:xlink="http://www.w3.org/1999/xlink" version="1.1" viewBox="0 0 800 800">
  <!-- Generator: Adobe Illustrator 30.1.0, SVG Export Plug-In . SVG Version: 2.1.1 Build 136)  -->
  <defs>
    <style>
      .st0 {
        fill: #1a1a18;
      }

      .st1 {
        fill: url(#radial-gradient);
      }
    </style>
    <radialGradient id="radial-gradient" cx="400.5" cy="397.3" fx="400.5" fy="397.3" r="315.5" gradientUnits="userSpaceOnUse">
      <stop offset="0" stop-color="#b9e5fa"/>
      <stop offset=".5" stop-color="#2dc0f7"/>
      <stop offset=".8" stop-color="#5f8dfa"/>
      <stop offset="1" stop-color="#8131fe"/>
    </radialGradient>
  </defs>
  <g id="Layer_1">
    <g id="Layer_2">
      <circle class="st0" cx="400.6" cy="397.2" r="354.8"/>
    </g>
  </g>
  <g id="Layer_21" data-name="Layer_2">
    <path id="_x32_" class="st1" d="M334,373c1.2,0,2.1.9,2.1,2.1s-.9,2.1-2.1,2.1-2.1-.9-2.1-2.1.9-2.1,2.1-2.1ZM469.4,363.9c1.2,0,2.2,1,2.2,2.2s-1,2.2-2.2,2.2-2.2-1-2.2-2.2,1-2.2,2.2-2.2ZM373.7,463.9c1.2,0,2.2,1,2.2,2.2s-1,2.2-2.2,2.2-2.2-1-2.2-2.2,1-2.2,2.2-2.2ZM376.8,322.9c1.3,0,2.3,1,2.3,2.3s-1,2.3-2.3,2.3-2.3-1-2.3-2.3,1-2.3,2.3-2.3ZM471.4,430.8c1.3,0,2.3,1,2.3,2.3s-1,2.3-2.3,2.3-2.3-1-2.3-2.3,1-2.3,2.3-2.3ZM326.3,414.7c1.3,0,2.4,1.1,2.4,2.4s-1.1,2.4-2.4,2.4-2.4-1.1-2.4-2.4,1.1-2.4,2.4-2.4ZM446.1,327.1c1.3,0,2.4,1.1,2.4,2.4s-1.1,2.4-2.4,2.4-2.4-1.1-2.4-2.4,1.1-2.4,2.4-2.4ZM416.5,474.9c1.3,0,2.4,1.1,2.4,2.4s-1.1,2.4-2.4,2.4-2.4-1.1-2.4-2.4,1.1-2.4,2.4-2.4ZM337.2,343.8c1.4,0,2.5,1.1,2.5,2.5s-1.1,2.5-2.5,2.5-2.5-1.1-2.5-2.5,1.1-2.5,2.5-2.5ZM486.4,387.5c1.4,0,2.5,1.1,2.5,2.5s-1.1,2.5-2.5,2.5-2.5-1.1-2.5-2.5,1.1-2.5,2.5-2.5ZM344.8,457c1.4,0,2.6,1.2,2.6,2.6s-1.2,2.6-2.6,2.6-2.6-1.2-2.6-2.6,1.2-2.6,2.6-2.6ZM403.1,307.9c1.4,0,2.6,1.2,2.6,2.6s-1.2,2.6-2.6,2.6-2.6-1.2-2.6-2.6,1.2-2.6,2.6-2.6ZM461.6,459.3c1.4,0,2.6,1.2,2.6,2.6s-1.2,2.6-2.6,2.6-2.6-1.2-2.6-2.6,1.2-2.6,2.6-2.6ZM314.2,386.1c1.5,0,2.7,1.2,2.7,2.7s-1.2,2.7-2.7,2.7-2.7-1.2-2.7-2.7,1.2-2.7,2.7-2.7ZM474.4,339.9c1.5,0,2.7,1.2,2.7,2.7s-1.2,2.7-2.7,2.7-2.7-1.2-2.7-2.7,1.2-2.7,2.7-2.7ZM386.3,483.9c1.5,0,2.8,1.3,2.8,2.8s-1.3,2.8-2.8,2.8-2.8-1.3-2.8-2.8,1.3-2.8,2.8-2.8ZM353.5,316.1c1.5,0,2.8,1.3,2.8,2.8s-1.3,2.8-2.8,2.8-2.8-1.3-2.8-2.8,1.3-2.8,2.8-2.8ZM492.7,418.9c1.5,0,2.8,1.3,2.8,2.8s-1.3,2.8-2.8,2.8-2.8-1.3-2.8-2.8,1.3-2.8,2.8-2.8ZM318.6,437.2c1.6,0,2.9,1.3,2.9,2.9s-1.3,2.9-2.9,2.9-2.9-1.3-2.9-2.9,1.3-2.9,2.9-2.9ZM435.9,304.4c1.6,0,2.9,1.3,2.9,2.9s-1.3,2.9-2.9,2.9-2.9-1.3-2.9-2.9,1.3-2.9,2.9-2.9ZM439.1,483.5c1.7,0,3,1.3,3,3s-1.3,3-3,3-3-1.3-3-3,1.3-3,3-3ZM314.3,352.1c1.7,0,3,1.3,3,3s-1.3,3-3,3-3-1.3-3-3,1.3-3,3-3ZM497.1,364.9c1.7,0,3,1.3,3,3s-1.3,3-3,3-3-1.3-3-3,1.3-3,3-3ZM352.2,480c1.7,0,3.1,1.4,3.1,3.1s-1.4,3.1-3.1,3.1-3.1-1.4-3.1-3.1,1.4-3.1,3.1-3.1ZM381.5,295.2c1.7,0,3.1,1.4,3.1,3.1s-1.4,3.1-3.1,3.1-3.1-1.4-3.1-3.1,1.4-3.1,3.1-3.1ZM485.7,452.8c1.8,0,3.2,1.4,3.2,3.2s-1.4,3.2-3.2,3.2-3.2-1.4-3.2-3.2,1.4-3.2,3.2-3.2ZM300.5,406.5c1.8,0,3.2,1.4,3.2,3.2s-1.4,3.2-3.2,3.2-3.2-1.4-3.2-3.2,1.4-3.2,3.2-3.2ZM470,314.6c1.8,0,3.2,1.4,3.2,3.2s-1.4,3.2-3.2,3.2-3.2-1.4-3.2-3.2,1.4-3.2,3.2-3.2ZM406.5,498.5c1.8,0,3.3,1.5,3.3,3.3s-1.5,3.3-3.3,3.3-3.3-1.5-3.3-3.3,1.5-3.3,3.3-3.3ZM328.3,318.2c1.8,0,3.3,1.5,3.3,3.3s-1.5,3.3-3.3,3.3-3.3-1.5-3.3-3.3,1.5-3.3,3.3-3.3ZM509.4,399c1.9,0,3.4,1.5,3.4,3.4s-1.5,3.4-3.4,3.4-3.4-1.5-3.4-3.4,1.5-3.4,3.4-3.4ZM319.5,462.3c1.9,0,3.4,1.5,3.4,3.4s-1.5,3.4-3.4,3.4-3.4-1.5-3.4-3.4,1.5-3.4,3.4-3.4ZM417.7,285.8c1.9,0,3.4,1.5,3.4,3.4s-1.5,3.4-3.4,3.4-3.4-1.5-3.4-3.4,1.5-3.4,3.4-3.4ZM464.9,483.9c1.9,0,3.5,1.6,3.5,3.5s-1.6,3.5-3.5,3.5-3.5-1.6-3.5-3.5,1.6-3.5,3.5-3.5ZM294.8,368.6c1.9,0,3.5,1.6,3.5,3.5s-1.6,3.5-3.5,3.5-3.5-1.6-3.5-3.5,1.6-3.5,3.5-3.5ZM496.2,341.2c.3-1.9,2.1-3.2,4-2.9s3.2,2.1,2.9,4-2.1,3.2-4,2.9-3.2-2.1-2.9-4ZM367.9,500.4c2,0,3.6,1.6,3.6,3.6s-1.6,3.6-3.6,3.6-3.6-1.6-3.6-3.6,1.6-3.6,3.6-3.6ZM355.6,290.1c2,0,3.6,1.6,3.6,3.6s-1.6,3.6-3.6,3.6-3.6-1.6-3.6-3.6,1.6-3.6,3.6-3.6ZM508,438c2,0,3.6,1.6,3.6,3.6s-1.6,3.6-3.6,3.6-3.6-1.6-3.6-3.6,1.6-3.6,3.6-3.6ZM294,431.8c2,0,3.7,1.7,3.7,3.7s-1.7,3.7-3.7,3.7-3.7-1.7-3.7-3.7,1.7-3.7,3.7-3.7ZM457.2,290.7c2,0,3.7,1.7,3.7,3.7s-1.7,3.7-3.7,3.7-3.7-1.7-3.7-3.7,1.7-3.7,3.7-3.7ZM432,506.6c2,0,3.7,1.7,3.7,3.7s-1.7,3.7-3.7,3.7-3.7-1.7-3.7-3.7,1.7-3.7,3.7-3.7ZM303.7,328.9c2.1,0,3.8,1.7,3.8,3.8s-1.7,3.8-3.8,3.8-3.8-1.7-3.8-3.8,1.7-3.8,3.8-3.8ZM519.9,373.6c2.1,0,3.8,1.7,3.8,3.8s-1.7,3.8-3.8,3.8-3.8-1.7-3.8-3.8,1.7-3.8,3.8-3.8ZM328.9,487.5c2.1,0,3.8,1.7,3.8,3.8s-1.7,3.8-3.8,3.8-3.8-1.7-3.8-3.8,1.7-3.8,3.8-3.8ZM393.3,272.8c2.2,0,3.9,1.7,3.9,3.9s-1.7,3.9-3.9,3.9-3.9-1.7-3.9-3.9,1.7-3.9,3.9-3.9ZM491.4,476c2.2,0,3.9,1.7,3.9,3.9s-1.7,3.9-3.9,3.9-3.9-1.7-3.9-3.9,1.7-3.9,3.9-3.9ZM280.4,391.9c2.2,0,3.9,1.7,3.9,3.9s-1.7,3.9-3.9,3.9-3.9-1.7-3.9-3.9,1.7-3.9,3.9-3.9ZM490.2,313.9c.4-2.2,2.4-3.7,4.6-3.3s3.7,2.4,3.3,4.6-2.4,3.7-4.6,3.3-3.7-2.4-3.3-4.6ZM390.6,516.4c2.2,0,4,1.8,4,4s-1.8,4-4,4-4-1.8-4-4,1.8-4,4-4ZM327.7,293.2c2.2,0,4,1.8,4,4s-1.8,4-4,4-4-1.8-4-4,1.8-4,4-4ZM526.2,416c2.3,0,4.1,1.8,4.1,4.1s-1.8,4.1-4.1,4.1-4.1-1.8-4.1-4.1,1.8-4.1,4.1-4.1ZM295.3,459.7c2.3,0,4.1,1.8,4.1,4.1s-1.8,4.1-4.1,4.1-4.1-1.8-4.1-4.1,1.8-4.1,4.1-4.1ZM436.9,270.3c2.3,0,4.1,1.8,4.1,4.1s-1.8,4.1-4.1,4.1-4.1-1.8-4.1-4.1,1.8-4.1,4.1-4.1ZM460.6,507c2.3,0,4.2,1.9,4.2,4.2s-1.9,4.2-4.2,4.2-4.2-1.9-4.2-4.2,1.9-4.2,4.2-4.2ZM282,347.4c2.3,0,4.2,1.9,4.2,4.2s-1.9,4.2-4.2,4.2-4.2-1.9-4.2-4.2,1.9-4.2,4.2-4.2ZM523,344.4c2.3,0,4.2,1.9,4.2,4.2s-1.9,4.2-4.2,4.2-4.2-1.9-4.2-4.2,1.9-4.2,4.2-4.2ZM346.2,510.3c2.4,0,4.3,1.9,4.3,4.3s-1.9,4.3-4.3,4.3-4.3-1.9-4.3-4.3,1.9-4.3,4.3-4.3ZM364.6,267c2.4,0,4.3,1.9,4.3,4.3s-1.9,4.3-4.3,4.3-4.3-1.9-4.3-4.3,1.9-4.3,4.3-4.3ZM516.3,460c2.4,0,4.3,1.9,4.3,4.3s-1.9,4.3-4.3,4.3-4.3-1.9-4.3-4.3,1.9-4.3,4.3-4.3ZM272.6,419.8c2.4,0,4.4,2,4.4,4.4s-2,4.4-4.4,4.4-4.4-2-4.4-4.4,2-4.4,4.4-4.4ZM480.6,284c2.4,0,4.4,2,4.4,4.4s-2,4.4-4.4,4.4-4.4-2-4.4-4.4,2-4.4,4.4-4.4ZM418.6,526.1c2.4,0,4.4,2,4.4,4.4s-2,4.4-4.4,4.4-4.4-2-4.4-4.4,2-4.4,4.4-4.4ZM300.1,304.4c2.4,0,4.4,2,4.4,4.4s-2,4.4-4.4,4.4-4.4-2-4.4-4.4,2-4.4,4.4-4.4ZM538.6,388.2c2.5,0,4.5,2,4.5,4.5s-2,4.5-4.5,4.5-4.5-2-4.5-4.5,2-4.5,4.5-4.5ZM304.8,488c2.5,0,4.5,2,4.5,4.5s-2,4.5-4.5,4.5-4.5-2-4.5-4.5,2-4.5,4.5-4.5ZM410.4,255.2c2.5,0,4.5,2,4.5,4.5s-2,4.5-4.5,4.5-4.5-2-4.5-4.5,2-4.5,4.5-4.5ZM490.2,499.4c2.5,0,4.6,2.1,4.6,4.6s-2.1,4.6-4.6,4.6-4.6-2.1-4.6-4.6,2.1-4.6,4.6-4.6ZM265.1,372.5c2.5,0,4.6,2.1,4.6,4.6s-2.1,4.6-4.6,4.6-4.6-2.1-4.6-4.6,2.1-4.6,4.6-4.6ZM518.1,313.7c2.5,0,4.6,2.1,4.6,4.6s-2.1,4.6-4.6,4.6-4.6-2.1-4.6-4.6,2.1-4.6,4.6-4.6ZM370.5,529c2.6,0,4.7,2.1,4.7,4.7s-2.1,4.7-4.7,4.7-4.7-2.1-4.7-4.7,2.1-4.7,4.7-4.7ZM333.6,269.1c2.6,0,4.7,2.1,4.7,4.7s-2.1,4.7-4.7,4.7-4.7-2.1-4.7-4.7,2.1-4.7,4.7-4.7ZM537.5,436.7c2.6,0,4.7,2.1,4.7,4.7s-2.1,4.7-4.7,4.7-4.7-2.1-4.7-4.7,2.1-4.7,4.7-4.7ZM272.6,450.9c2.6,0,4.7,2.1,4.7,4.7s-2.1,4.7-4.7,4.7-4.7-2.1-4.7-4.7,2.1-4.7,4.7-4.7ZM459.3,260.4c2.7,0,4.8,2.1,4.8,4.8s-2.1,4.8-4.8,4.8-4.8-2.1-4.8-4.8,2.1-4.8,4.8-4.8ZM450.1,528.3c2.7,0,4.8,2.1,4.8,4.8s-2.1,4.8-4.8,4.8-4.8-2.1-4.8-4.8,2.1-4.8,4.8-4.8ZM275.1,323.5c2.7,0,4.8,2.1,4.8,4.8s-2.1,4.8-4.8,4.8-4.8-2.1-4.8-4.8,2.1-4.8,4.8-4.8ZM543.8,356.3c2.7,0,4.9,2.2,4.9,4.9s-2.2,4.9-4.9,4.9-4.9-2.2-4.9-4.9,2.2-4.9,4.9-4.9ZM322.3,514.3c2.7,0,4.9,2.2,4.9,4.9s-2.2,4.9-4.9,4.9-4.9-2.2-4.9-4.9,2.2-4.9,4.9-4.9ZM379.2,247c2.7,0,4.9,2.2,4.9,4.9s-2.2,4.9-4.9,4.9-4.9-2.2-4.9-4.9,2.2-4.9,4.9-4.9ZM518.5,483.6c2.7,0,4.9,2.2,4.9,4.9s-2.2,4.9-4.9,4.9-4.9-2.2-4.9-4.9,2.2-4.9,4.9-4.9ZM254.7,402.8c2.8,0,5,2.2,5,5s-2.2,5-5,5-5-2.2-5-5,2.2-5,5-5ZM505,283.5c2.8,0,5,2.2,5,5s-2.2,5-5,5-5-2.2-5-5,2.2-5,5-5ZM400.5,541.7c2.8,0,5,2.2,5,5s-2.2,5-5,5-5-2.2-5-5,2.2-5,5-5ZM302.6,279.4c2.8,0,5.1,2.3,5.1,5.1s-2.3,5.1-5.1,5.1-5.1-2.3-5.1-5.1,2.3-5.1,5.1-5.1ZM553,407.3c2.8,0,5.1,2.3,5.1,5.1s-2.3,5.1-5.1,5.1-5.1-2.3-5.1-5.1,2.3-5.1,5.1-5.1ZM280.8,482.5c2.8,0,5.1,2.3,5.1,5.1s-2.3,5.1-5.1,5.1-5.1-2.3-5.1-5.1,2.3-5.1,5.1-5.1ZM431.4,242.1c2.8,0,5.1,2.3,5.1,5.1s-2.3,5.1-5.1,5.1-5.1-2.3-5.1-5.1,2.3-5.1,5.1-5.1ZM483,522.2c2.9,0,5.2,2.3,5.2,5.2s-2.3,5.2-5.2,5.2-5.2-2.3-5.2-5.2,2.3-5.2,5.2-5.2ZM254.6,349.7c2.9,0,5.2,2.3,5.2,5.2s-2.3,5.2-5.2,5.2-5.2-2.3-5.2-5.2,2.3-5.2,5.2-5.2ZM540.9,322.5c2.9,0,5.2,2.3,5.2,5.2s-2.3,5.2-5.2,5.2-5.2-2.3-5.2-5.2,2.3-5.2,5.2-5.2ZM347.3,536.8c2.9,0,5.2,2.3,5.2,5.2s-2.3,5.2-5.2,5.2-5.2-2.3-5.2-5.2,2.3-5.2,5.2-5.2ZM345.3,246.7c2.9,0,5.3,2.4,5.3,5.3s-2.4,5.3-5.3,5.3-5.3-2.4-5.3-5.3,2.4-5.3,5.3-5.3ZM543.5,460.1c2.9,0,5.3,2.4,5.3,5.3s-2.4,5.3-5.3,5.3-5.3-2.4-5.3-5.3,2.4-5.3,5.3-5.3ZM252,436.5c2.9,0,5.3,2.4,5.3,5.3s-2.4,5.3-5.3,5.3-5.3-2.4-5.3-5.3,2.4-5.3,5.3-5.3ZM483.8,256.1c3,0,5.4,2.4,5.4,5.4s-2.4,5.4-5.4,5.4-5.4-2.4-5.4-5.4,2.4-5.4,5.4-5.4ZM434.4,546.9c3,0,5.4,2.4,5.4,5.4s-2.4,5.4-5.4,5.4-5.4-2.4-5.4-5.4,2.4-5.4,5.4-5.4ZM273.8,298.1c3,0,5.4,2.4,5.4,5.4s-2.4,5.4-5.4,5.4-5.4-2.4-5.4-5.4,2.4-5.4,5.4-5.4ZM561.5,373.4c3,0,5.4,2.4,5.4,5.4s-2.4,5.4-5.4,5.4-5.4-2.4-5.4-5.4,2.4-5.4,5.4-5.4ZM297.4,512.7c3,0,5.5,2.5,5.5,5.5s-2.5,5.5-5.5,5.5-5.5-2.5-5.5-5.5,2.5-5.5,5.5-5.5ZM398.4,230.4c3,0,5.5,2.5,5.5,5.5s-2.5,5.5-5.5,5.5-5.5-2.5-5.5-5.5,2.5-5.5,5.5-5.5ZM515.1,507.8c3,0,5.5,2.5,5.5,5.5s-2.5,5.5-5.5,5.5-5.5-2.5-5.5-5.5,2.5-5.5,5.5-5.5ZM240.5,381.6c3,0,5.5,2.5,5.5,5.5s-2.5,5.5-5.5,5.5-5.5-2.5-5.5-5.5,2.5-5.5,5.5-5.5ZM529.4,288.7c3.1,0,5.6,2.5,5.6,5.6s-2.5,5.6-5.6,5.6-5.6-2.5-5.6-5.6,2.5-5.6,5.6-5.6ZM378.5,553.3c3.1,0,5.6,2.5,5.6,5.6s-2.5,5.6-5.6,5.6-5.6-2.5-5.6-5.6,2.5-5.6,5.6-5.6ZM310.8,255.1c3.1,0,5.6,2.5,5.6,5.6s-2.5,5.6-5.6,5.6-5.6-2.5-5.6-5.6,2.5-5.6,5.6-5.6ZM563.1,429.9c3.1,0,5.6,2.5,5.6,5.6s-2.5,5.6-5.6,5.6-5.6-2.5-5.6-5.6,2.5-5.6,5.6-5.6ZM257.8,471.5c3.1,0,5.7,2.6,5.7,5.7s-2.6,5.7-5.7,5.7-5.7-2.6-5.7-5.7,2.6-5.7,5.7-5.7ZM455.5,233.7c3.1,0,5.7,2.6,5.7,5.7s-2.6,5.7-5.7,5.7-5.7-2.6-5.7-5.7,2.6-5.7,5.7-5.7ZM470.4,543.7c3.1,0,5.7,2.6,5.7,5.7s-2.6,5.7-5.7,5.7-5.7-2.6-5.7-5.7,2.6-5.7,5.7-5.7ZM249.1,324.3c3.2,0,5.8,2.6,5.8,5.8s-2.6,5.8-5.8,5.8-5.8-2.6-5.8-5.8,2.6-5.8,5.8-5.8ZM561.6,336.6c3.2,0,5.8,2.6,5.8,5.8s-2.6,5.8-5.8,5.8-5.8-2.6-5.8-5.8,2.6-5.8,5.8-5.8ZM322,539.3c3.2,0,5.8,2.6,5.8,5.8s-2.6,5.8-5.8,5.8-5.8-2.6-5.8-5.8,2.6-5.8,5.8-5.8ZM361.9,226.8c3.2,0,5.8,2.6,5.8,5.8s-2.6,5.8-5.8,5.8-5.8-2.6-5.8-5.8,2.6-5.8,5.8-5.8ZM544.2,485.1c3.3,0,5.9,2.6,5.9,5.9s-2.6,5.9-5.9,5.9-5.9-2.6-5.9-5.9,2.6-5.9,5.9-5.9ZM234.2,417.5c3.3,0,5.9,2.6,5.9,5.9s-2.6,5.9-5.9,5.9-5.9-2.6-5.9-5.9,2.6-5.9,5.9-5.9ZM509.4,257.3c3.3,0,5.9,2.6,5.9,5.9s-2.6,5.9-5.9,5.9-5.9-2.6-5.9-5.9,2.6-5.9,5.9-5.9ZM414.3,562.4c3.3,0,5.9,2.6,5.9,5.9s-2.6,5.9-5.9,5.9-5.9-2.6-5.9-5.9,2.6-5.9,5.9-5.9ZM277.9,272.1c3.3,0,6,2.7,6,6s-2.7,6-6,6-6-2.7-6-6,2.7-6,6-6ZM575.6,394.3c3.3,0,6,2.7,6,6s-2.7,6-6,6-6-2.7-6-6,2.7-6,6-6ZM272.4,505.7c3.3,0,6,2.7,6,6s-2.7,6-6,6-6-2.7-6-6,2.7-6,6-6ZM421.3,217.8c3.3,0,6,2.7,6,6s-2.7,6-6,6-6-2.7-6-6,2.7-6,6-6ZM506.3,531.6c3.4,0,6.1,2.7,6.1,6.1s-2.7,6.1-6.1,6.1-6.1-2.7-6.1-6.1,2.7-6.1,6.1-6.1ZM230.6,357c3.4,0,6.1,2.7,6.1,6.1s-2.7,6.1-6.1,6.1-6.1-2.7-6.1-6.1,2.7-6.1,6.1-6.1ZM552.9,299.4c3.4,0,6.1,2.7,6.1,6.1s-2.7,6.1-6.1,6.1-6.1-2.7-6.1-6.1,2.7-6.1,6.1-6.1ZM353.5,560.4c3.4,0,6.1,2.7,6.1,6.1s-2.7,6.1-6.1,6.1-6.1-2.7-6.1-6.1,2.7-6.1,6.1-6.1ZM324.1,232c3.4,0,6.2,2.8,6.2,6.2s-2.8,6.2-6.2,6.2-6.2-2.8-6.2-6.2,2.8-6.2,6.2-6.2ZM568.3,455c3.4,0,6.2,2.8,6.2,6.2s-2.8,6.2-6.2,6.2-6.2-2.8-6.2-6.2,2.8-6.2,6.2-6.2ZM236.6,455.6c3.4,0,6.2,2.8,6.2,6.2s-2.8,6.2-6.2,6.2-6.2-2.8-6.2-6.2,2.8-6.2,6.2-6.2ZM481.6,230.3c3.4,0,6.2,2.8,6.2,6.2s-2.8,6.2-6.2,6.2-6.2-2.8-6.2-6.2,2.8-6.2,6.2-6.2ZM453,562.9c3.5,0,6.3,2.8,6.3,6.3s-2.8,6.3-6.3,6.3-6.3-2.8-6.3-6.3,2.8-6.3,6.3-6.3ZM248.7,297.4c3.5,0,6.3,2.8,6.3,6.3s-2.8,6.3-6.3,6.3-6.3-2.8-6.3-6.3,2.8-6.3,6.3-6.3ZM579.8,355.3c3.5,0,6.3,2.8,6.3,6.3s-2.8,6.3-6.3,6.3-6.3-2.8-6.3-6.3,2.8-6.3,6.3-6.3ZM295.6,536.8c3.5,0,6.3,2.8,6.3,6.3s-2.8,6.3-6.3,6.3-6.3-2.8-6.3-6.3,2.8-6.3,6.3-6.3ZM382.8,209.9c3.5,0,6.4,2.9,6.4,6.4s-2.9,6.4-6.4,6.4-6.4-2.9-6.4-6.4,2.9-6.4,6.4-6.4ZM539.7,510.8c3.5,0,6.4,2.9,6.4,6.4s-2.9,6.4-6.4,6.4-6.4-2.9-6.4-6.4,2.9-6.4,6.4-6.4ZM219.8,394.6c3.5,0,6.4,2.9,6.4,6.4s-2.9,6.4-6.4,6.4-6.4-2.9-6.4-6.4,2.9-6.4,6.4-6.4ZM535.2,263.7c3.5,0,6.4,2.9,6.4,6.4s-2.9,6.4-6.4,6.4-6.4-2.9-6.4-6.4,2.9-6.4,6.4-6.4ZM390.6,574.2c3.5,0,6.4,2.9,6.4,6.4s-2.9,6.4-6.4,6.4-6.4-2.9-6.4-6.4,2.9-6.4,6.4-6.4ZM287.2,246.5c3.6,0,6.5,2.9,6.5,6.5s-2.9,6.5-6.5,6.5-6.5-2.9-6.5-6.5,2.9-6.5,6.5-6.5ZM585.6,418.7c3.6,0,6.5,2.9,6.5,6.5s-2.9,6.5-6.5,6.5-6.5-2.9-6.5-6.5,2.9-6.5,6.5-6.5ZM248.2,493.5c3.6,0,6.5,2.9,6.5,6.5s-2.9,6.5-6.5,6.5-6.5-2.9-6.5-6.5,2.9-6.5,6.5-6.5ZM447.1,209.6c3.6,0,6.5,2.9,6.5,6.5s-2.9,6.5-6.5,6.5-6.5-2.9-6.5-6.5,2.9-6.5,6.5-6.5ZM492.4,554.2c3.6,0,6.6,3,6.6,6.6s-3,6.6-6.6,6.6-6.6-3-6.6-6.6,3-6.6,6.6-6.6ZM225.3,329.9c3.6,0,6.6,3,6.6,6.6s-3,6.6-6.6,6.6-6.6-3-6.6-6.6,3-6.6,6.6-6.6ZM574.8,314.9c3.6,0,6.6,3,6.6,6.6s-3,6.6-6.6,6.6-6.6-3-6.6-6.6,3-6.6,6.6-6.6ZM326.5,562.8c3.6,0,6.6,3,6.6,6.6s-3,6.6-6.6,6.6-6.6-3-6.6-6.6,3-6.6,6.6-6.6ZM342.2,211.2c3.7,0,6.7,3,6.7,6.7s-3,6.7-6.7,6.7-6.7-3-6.7-6.7,3-6.7,6.7-6.7ZM568.7,481.7c3.7,0,6.7,3,6.7,6.7s-3,6.7-6.7,6.7-6.7-3-6.7-6.7,3-6.7,6.7-6.7ZM217.9,435.1c3.7,0,6.7,3,6.7,6.7s-3,6.7-6.7,6.7-6.7-3-6.7-6.7,3-6.7,6.7-6.7ZM508.9,231.9c3.7,0,6.7,3,6.7,6.7s-3,6.7-6.7,6.7-6.7-3-6.7-6.7,3-6.7,6.7-6.7ZM431.4,579.2c3.8,0,6.8,3,6.8,6.8s-3,6.8-6.8,6.8-6.8-3-6.8-6.8,3-6.8,6.8-6.8ZM253.4,269.8c3.8,0,6.8,3,6.8,6.8s-3,6.8-6.8,6.8-6.8-3-6.8-6.8,3-6.8,6.8-6.8ZM594.6,378c3.8,0,6.8,3,6.8,6.8s-3,6.8-6.8,6.8-6.8-3-6.8-6.8,3-6.8,6.8-6.8ZM269,529.1c3.8,0,6.8,3,6.8,6.8s-3,6.8-6.8,6.8-6.8-3-6.8-6.8,3-6.8,6.8-6.8ZM407.4,196.9c3.8,0,6.8,3,6.8,6.8s-3,6.8-6.8,6.8-6.8-3-6.8-6.8,3-6.8,6.8-6.8ZM530.1,536.2c3.8,0,6.9,3.1,6.9,6.9s-3.1,6.9-6.9,6.9-6.9-3.1-6.9-6.9,3.1-6.9,6.9-6.9ZM209.4,368.3c3.8,0,6.9,3.1,6.9,6.9s-3.1,6.9-6.9,6.9-6.9-3.1-6.9-6.9,3.1-6.9,6.9-6.9ZM560.2,275.3c3.8,0,6.9,3.1,6.9,6.9s-3.1,6.9-6.9,6.9-6.9-3.1-6.9-6.9,3.1-6.9,6.9-6.9ZM363.9,581.7c3.8,0,6.9,3.1,6.9,6.9s-3.1,6.9-6.9,6.9-6.9-3.1-6.9-6.9,3.1-6.9,6.9-6.9ZM301.5,222c3.9,0,7,3.1,7,7s-3.1,7-7,7-7-3.1-7-7,3.1-7,7-7ZM591.2,445.6c3.9,0,7,3.1,7,7s-3.1,7-7,7-7-3.1-7-7,3.1-7,7-7ZM225.6,476.5c3.9,0,7,3.1,7,7s-3.1,7-7,7-7-3.1-7-7,3.1-7,7-7ZM475,206c3.9,0,7,3.1,7,7s-3.1,7-7,7-7-3.1-7-7,3.1-7,7-7ZM473.8,574.9c3.9,0,7,3.1,7,7s-3.1,7-7,7-7-3.1-7-7,3.1-7,7-7ZM224.8,301.3c3.9,0,7.1,3.2,7.1,7.1s-3.2,7.1-7.1,7.1-7.1-3.2-7.1-7.1,3.2-7.1,7.1-7.1ZM594.1,334.9c3.9,0,7.1,3.2,7.1,7.1s-3.2,7.1-7.1,7.1-7.1-3.2-7.1-7.1,3.2-7.1,7.1-7.1ZM298.3,560.2c3.9,0,7.1,3.2,7.1,7.1s-3.2,7.1-7.1,7.1-7.1-3.2-7.1-7.1,3.2-7.1,7.1-7.1ZM364.4,193.3c3.9,0,7.1,3.2,7.1,7.1s-3.2,7.1-7.1,7.1-7.1-3.2-7.1-7.1,3.2-7.1,7.1-7.1ZM564,509.2c4,0,7.2,3.2,7.2,7.2s-3.2,7.2-7.2,7.2-7.2-3.2-7.2-7.2,3.2-7.2,7.2-7.2ZM202.5,410.8c4,0,7.2,3.2,7.2,7.2s-3.2,7.2-7.2,7.2-7.2-3.2-7.2-7.2,3.2-7.2,7.2-7.2ZM536.4,238.7c4,0,7.2,3.2,7.2,7.2s-3.2,7.2-7.2,7.2-7.2-3.2-7.2-7.2,3.2-7.2,7.2-7.2ZM406.1,592c4,0,7.2,3.2,7.2,7.2s-3.2,7.2-7.2,7.2-7.2-3.2-7.2-7.2,3.2-7.2,7.2-7.2ZM263.1,242.6c4,0,7.2,3.2,7.2,7.2s-3.2,7.2-7.2,7.2-7.2-3.2-7.2-7.2,3.2-7.2,7.2-7.2ZM605.5,404c4,0,7.3,3.3,7.3,7.3s-3.3,7.3-7.3,7.3-7.3-3.3-7.3-7.3,3.3-7.3,7.3-7.3ZM243,516.4c4,0,7.3,3.3,7.3,7.3s-3.3,7.3-7.3,7.3-7.3-3.3-7.3-7.3,3.3-7.3,7.3-7.3ZM434.8,187.9c4,0,7.3,3.3,7.3,7.3s-3.3,7.3-7.3,7.3-7.3-3.3-7.3-7.3,3.3-7.3,7.3-7.3ZM515.5,560.6c4,0,7.3,3.3,7.3,7.3s-3.3,7.3-7.3,7.3-7.3-3.3-7.3-7.3,3.3-7.3,7.3-7.3ZM203.5,339.6c4.1,0,7.4,3.3,7.4,7.4s-3.3,7.4-7.4,7.4-7.4-3.3-7.4-7.4,3.3-7.4,7.4-7.4ZM583.7,291.6c4.1,0,7.4,3.3,7.4,7.4s-3.3,7.4-7.4,7.4-7.4-3.3-7.4-7.4,3.3-7.4,7.4-7.4ZM335.2,584.6c4.1,0,7.4,3.3,7.4,7.4s-3.3,7.4-7.4,7.4-7.4-3.3-7.4-7.4,3.3-7.4,7.4-7.4ZM320.5,199.7c4.1,0,7.4,3.3,7.4,7.4s-3.3,7.4-7.4,7.4-7.4-3.3-7.4-7.4,3.3-7.4,7.4-7.4ZM591.9,474.3c4.1,0,7.4,3.3,7.4,7.4s-3.3,7.4-7.4,7.4-7.4-3.3-7.4-7.4,3.3-7.4,7.4-7.4ZM205.4,455c4.1,0,7.5,3.4,7.5,7.5s-3.4,7.5-7.5,7.5-7.5-3.4-7.5-7.5,3.4-7.5,7.5-7.5ZM504.1,207.4c4.1,0,7.5,3.4,7.5,7.5s-3.4,7.5-7.5,7.5-7.5-3.4-7.5-7.5,3.4-7.5,7.5-7.5ZM451,592.7c4.1,0,7.5,3.4,7.5,7.5s-3.4,7.5-7.5,7.5-7.5-3.4-7.5-7.5,3.4-7.5,7.5-7.5ZM229.4,272c4.1,0,7.5,3.4,7.5,7.5s-3.4,7.5-7.5,7.5-7.5-3.4-7.5-7.5,3.4-7.5,7.5-7.5ZM610.3,359c4.1,0,7.5,3.4,7.5,7.5s-3.4,7.5-7.5,7.5-7.5-3.4-7.5-7.5,3.4-7.5,7.5-7.5ZM269.8,552.5c4.2,0,7.6,3.4,7.6,7.6s-3.4,7.6-7.6,7.6-7.6-3.4-7.6-7.6,3.4-7.6,7.6-7.6ZM390.4,178.9c4.2,0,7.6,3.4,7.6,7.6s-3.4,7.6-7.6,7.6-7.6-3.4-7.6-7.6,3.4-7.6,7.6-7.6ZM554.2,536.6c4.2,0,7.6,3.4,7.6,7.6s-3.4,7.6-7.6,7.6-7.6-3.4-7.6-7.6,3.4-7.6,7.6-7.6ZM190.9,383.2c4.2,0,7.6,3.4,7.6,7.6s-3.4,7.6-7.6,7.6-7.6-3.4-7.6-7.6,3.4-7.6,7.6-7.6ZM563.3,250.5c4.3,0,7.7,3.4,7.7,7.7s-3.4,7.7-7.7,7.7-7.7-3.4-7.7-7.7,3.4-7.7,7.7-7.7ZM377.9,600.6c4.3,0,7.7,3.4,7.7,7.7s-3.4,7.7-7.7,7.7-7.7-3.4-7.7-7.7,3.4-7.7,7.7-7.7ZM277.9,216.3c4.3,0,7.7,3.4,7.7,7.7s-3.4,7.7-7.7,7.7-7.7-3.4-7.7-7.7,3.4-7.7,7.7-7.7ZM612,432.7c4.3,0,7.7,3.4,7.7,7.7s-3.4,7.7-7.7,7.7-7.7-3.4-7.7-7.7,3.4-7.7,7.7-7.7ZM218.6,498.9c4.3,0,7.7,3.4,7.7,7.7s-3.4,7.7-7.7,7.7-7.7-3.4-7.7-7.7,3.4-7.7,7.7-7.7ZM464.5,183.5c4.3,0,7.8,3.5,7.8,7.8s-3.5,7.8-7.8,7.8-7.8-3.5-7.8-7.8,3.5-7.8,7.8-7.8ZM496.2,583c4.3,0,7.8,3.5,7.8,7.8s-3.5,7.8-7.8,7.8-7.8-3.5-7.8-7.8,3.5-7.8,7.8-7.8ZM202.3,309.3c4.3,0,7.8,3.5,7.8,7.8s-3.5,7.8-7.8,7.8-7.8-3.5-7.8-7.8,3.5-7.8,7.8-7.8ZM604.8,312.6c4.3,0,7.8,3.5,7.8,7.8s-3.5,7.8-7.8,7.8-7.8-3.5-7.8-7.8,3.5-7.8,7.8-7.8ZM305.1,582.7c4.3,0,7.8,3.5,7.8,7.8s-3.5,7.8-7.8,7.8-7.8-3.5-7.8-7.8,3.5-7.8,7.8-7.8ZM343.8,180.1c4.4,0,7.9,3.5,7.9,7.9s-3.5,7.9-7.9,7.9-7.9-3.5-7.9-7.9,3.5-7.9,7.9-7.9ZM587.7,503.7c4.4,0,7.9,3.5,7.9,7.9s-3.5,7.9-7.9,7.9-7.9-3.5-7.9-7.9,3.5-7.9,7.9-7.9ZM188.4,429.6c4.4,0,7.9,3.5,7.9,7.9s-3.5,7.9-7.9,7.9-7.9-3.5-7.9-7.9,3.5-7.9,7.9-7.9ZM533.5,214c4.4,0,7.9,3.5,7.9,7.9s-3.5,7.9-7.9,7.9-7.9-3.5-7.9-7.9,3.5-7.9,7.9-7.9ZM424.4,607c4.4,0,7.9,3.5,7.9,7.9s-3.5,7.9-7.9,7.9-7.9-3.5-7.9-7.9,3.5-7.9,7.9-7.9ZM239,242.6c4.4,0,8,3.6,8,8s-3.6,8-8,8-8-3.6-8-8,3.6-8,8-8ZM622.7,386.3c4.4,0,8,3.6,8,8s-3.6,8-8,8-8-3.6-8-8,3.6-8,8-8ZM241.9,539.9c4.4,0,8,3.6,8,8s-3.6,8-8,8-8-3.6-8-8,3.6-8,8-8ZM419.3,168.7c4.4,0,8,3.6,8,8s-3.6,8-8,8-8-3.6-8-8,3.6-8,8-8ZM539.5,563c4.4,0,8,3.6,8,8s-3.6,8-8,8-8-3.6-8-8,3.6-8,8-8ZM183.7,352.9c4.5,0,8.1,3.6,8.1,8.1s-3.6,8.1-8.1,8.1-8.1-3.6-8.1-8.1,3.6-8.1,8.1-8.1ZM588.8,267.3c4.5,0,8.1,3.6,8.1,8.1s-3.6,8.1-8.1,8.1-8.1-3.6-8.1-8.1,3.6-8.1,8.1-8.1ZM347.4,604.7c4.5,0,8.1,3.6,8.1,8.1s-3.6,8.1-8.1,8.1-8.1-3.6-8.1-8.1,3.6-8.1,8.1-8.1ZM297.4,192c4.5,0,8.1,3.6,8.1,8.1s-3.6,8.1-8.1,8.1-8.1-3.6-8.1-8.1,3.6-8.1,8.1-8.1ZM613.7,463.1c4.5,0,8.1,3.6,8.1,8.1s-3.6,8.1-8.1,8.1-8.1-3.6-8.1-8.1,3.6-8.1,8.1-8.1ZM196.5,476.8c4.5,0,8.2,3.7,8.2,8.2s-3.7,8.2-8.2,8.2-8.2-3.7-8.2-8.2,3.7-8.2,8.2-8.2ZM487.1,191c.7-4.5,4.9-7.5,9.4-6.8s7.5,4.9,6.8,9.4-4.9,7.5-9.4,6.8-7.5-4.9-6.8-9.4ZM472.6,602.8c4.5,0,8.2,3.7,8.2,8.2s-3.7,8.2-8.2,8.2-8.2-3.7-8.2-8.2,3.7-8.2,8.2-8.2ZM206.1,278c4.5,0,8.2,3.7,8.2,8.2s-3.7,8.2-8.2,8.2-8.2-3.7-8.2-8.2,3.7-8.2,8.2-8.2ZM622.8,337.6c4.5,0,8.2,3.7,8.2,8.2s-3.7,8.2-8.2,8.2-8.2-3.7-8.2-8.2,3.7-8.2,8.2-8.2ZM274.6,575.5c4.6,0,8.3,3.7,8.3,8.3s-3.7,8.3-8.3,8.3-8.3-3.7-8.3-8.3,3.7-8.3,8.3-8.3ZM370.8,163.9c4.6,0,8.3,3.7,8.3,8.3s-3.7,8.3-8.3,8.3-8.3-3.7-8.3-8.3,3.7-8.3,8.3-8.3ZM578.3,533.1c4.6,0,8.3,3.7,8.3,8.3s-3.7,8.3-8.3,8.3-8.3-3.7-8.3-8.3,3.7-8.3,8.3-8.3ZM175.1,400.8c4.6,0,8.3,3.7,8.3,8.3s-3.7,8.3-8.3,8.3-8.3-3.7-8.3-8.3,3.7-8.3,8.3-8.3ZM562.6,225.7c4.6,0,8.3,3.7,8.3,8.3s-3.7,8.3-8.3,8.3-8.3-3.7-8.3-8.3,3.7-8.3,8.3-8.3ZM394.8,617.2c4.6,0,8.4,3.8,8.4,8.4s-3.8,8.4-8.4,8.4-8.4-3.8-8.4-8.4,3.8-8.4,8.4-8.4ZM253.7,214.3c4.6,0,8.4,3.8,8.4,8.4s-3.8,8.4-8.4,8.4-8.4-3.8-8.4-8.4,3.8-8.4,8.4-8.4ZM630.7,416.5c4.6,0,8.4,3.8,8.4,8.4s-3.8,8.4-8.4,8.4-8.4-3.8-8.4-8.4,3.8-8.4,8.4-8.4ZM215.3,522.3c4.6,0,8.4,3.8,8.4,8.4s-3.8,8.4-8.4,8.4-8.4-3.8-8.4-8.4,3.8-8.4,8.4-8.4ZM450.6,163c4.6,0,8.4,3.8,8.4,8.4s-3.8,8.4-8.4,8.4-8.4-3.8-8.4-8.4,3.8-8.4,8.4-8.4ZM519.9,587.6c4.7,0,8.5,3.8,8.5,8.5s-3.8,8.5-8.5,8.5-8.5-3.8-8.5-8.5,3.8-8.5,8.5-8.5ZM181.3,320.8c4.7,0,8.5,3.8,8.5,8.5s-3.8,8.5-8.5,8.5-8.5-3.8-8.5-8.5,3.8-8.5,8.5-8.5ZM612,288.6c4.7,0,8.5,3.8,8.5,8.5s-3.8,8.5-8.5,8.5-8.5-3.8-8.5-8.5,3.8-8.5,8.5-8.5ZM315.5,603.9c4.7,0,8.5,3.8,8.5,8.5s-3.8,8.5-8.5,8.5-8.5-3.8-8.5-8.5,3.8-8.5,8.5-8.5ZM321.2,170.3c4.7,0,8.5,3.8,8.5,8.5s-3.8,8.5-8.5,8.5-8.5-3.8-8.5-8.5,3.8-8.5,8.5-8.5ZM610.5,494.4c4.7,0,8.6,3.9,8.6,8.6s-3.9,8.6-8.6,8.6-8.6-3.9-8.6-8.6,3.9-8.6,8.6-8.6ZM177.4,450.7c4.7,0,8.6,3.9,8.6,8.6s-3.9,8.6-8.6,8.6-8.6-3.9-8.6-8.6,3.9-8.6,8.6-8.6ZM526.9,189.9c4.7,0,8.6,3.9,8.6,8.6s-3.9,8.6-8.6,8.6-8.6-3.9-8.6-8.6,3.9-8.6,8.6-8.6ZM445.2,619.1c4.7,0,8.6,3.9,8.6,8.6s-3.9,8.6-8.6,8.6-8.6-3.9-8.6-8.6,3.9-8.6,8.6-8.6ZM215.1,246.7c4.7,0,8.6,3.9,8.6,8.6s-3.9,8.6-8.6,8.6-8.6-3.9-8.6-8.6,3.9-8.6,8.6-8.6ZM637.1,366c4.8,0,8.7,3.9,8.7,8.7s-3.9,8.7-8.7,8.7-8.7-3.9-8.7-8.7,3.9-8.7,8.7-8.7ZM244.5,563.4c4.8,0,8.7,3.9,8.7,8.7s-3.9,8.7-8.7,8.7-8.7-3.9-8.7-8.7,3.9-8.7,8.7-8.7ZM401,151.9c4.8,0,8.7,3.9,8.7,8.7s-3.9,8.7-8.7,8.7-8.7-3.9-8.7-8.7,3.9-8.7,8.7-8.7ZM563.9,561.7c4.8,0,8.7,3.9,8.7,8.7s-3.9,8.7-8.7,8.7-8.7-3.9-8.7-8.7,3.9-8.7,8.7-8.7ZM166.1,369.2c4.8,0,8.7,3.9,8.7,8.7s-3.9,8.7-8.7,8.7-8.7-3.9-8.7-8.7,3.9-8.7,8.7-8.7ZM590.3,242.2c4.9,0,8.8,3.9,8.8,8.8s-3.9,8.8-8.8,8.8-8.8-3.9-8.8-8.8,3.9-8.8,8.8-8.8ZM362.9,623c4.9,0,8.8,3.9,8.8,8.8s-3.9,8.8-8.8,8.8-8.8-3.9-8.8-8.8,3.9-8.8,8.8-8.8ZM264.5,195c.8-4.8,5.3-8.1,10.1-7.3s8.1,5.3,7.3,10.1-5.3,8.1-10.1,7.3-8.1-5.3-7.3-10.1ZM633.9,448.6c4.9,0,8.8,3.9,8.8,8.8s-3.9,8.8-8.8,8.8-8.8-3.9-8.8-8.8,3.9-8.8,8.8-8.8ZM191,500.1c4.9,0,8.8,3.9,8.8,8.8s-3.9,8.8-8.8,8.8-8.8-3.9-8.8-8.8,3.9-8.8,8.8-8.8ZM483.3,162.3c4.9,0,8.8,3.9,8.8,8.8s-3.9,8.8-8.8,8.8-8.8-3.9-8.8-8.8,3.9-8.8,8.8-8.8ZM495.9,609.5c4.9,0,8.9,4,8.9,8.9s-4,8.9-8.9,8.9-8.9-4-8.9-8.9,4-8.9,8.9-8.9ZM183.9,287.6c4.9,0,8.9,4,8.9,8.9s-4,8.9-8.9,8.9-8.9-4-8.9-8.9,4-8.9,8.9-8.9ZM632.3,314.2c4.9,0,8.9,4,8.9,8.9s-4,8.9-8.9,8.9-8.9-4-8.9-8.9,4-8.9,8.9-8.9ZM274.3,606.7c.4-4.9,4.6-8.6,9.5-8.2s8.6,4.6,8.2,9.5-4.6,8.6-9.5,8.2-8.6-4.6-8.2-9.5ZM349,152.1c4.9,0,8.9,4,8.9,8.9s-4,8.9-8.9,8.9-8.9-4-8.9-8.9,4-8.9,8.9-8.9ZM602,526c5,0,9,4,9,9s-4,9-9,9-9-4-9-9,4-9,9-9ZM162,420.9c5,0,9,4,9,9s-4,9-9,9-9-4-9-9,4-9,9-9ZM558.1,200.8c5,0,9,4,9,9s-4,9-9,9-9-4-9-9,4-9,9-9ZM414.5,631.4c5,0,9,4,9,9s-4,9-9,9-9-4-9-9,4-9,9-9ZM229.2,216.1c5,0,9,4,9,9s-4,9-9,9-9-4-9-9,4-9,9-9ZM647.1,397.5c5,0,9,4,9,9s-4,9-9,9-9-4-9-9,4-9,9-9ZM215.7,546.2c5,0,9.1,4.1,9.1,9.1s-4.1,9.1-9.1,9.1-9.1-4.1-9.1-9.1,4.1-9.1,9.1-9.1ZM433.6,144.4c5,0,9.1,4.1,9.1,9.1s-4.1,9.1-9.1,9.1-9.1-4.1-9.1-9.1,4.1-9.1,9.1-9.1ZM544.5,588.7c5,0,9.1,4.1,9.1,9.1s-4.1,9.1-9.1,9.1-9.1-4.1-9.1-9.1,4.1-9.1,9.1-9.1ZM162,335.5c5,0,9.1,4.1,9.1,9.1s-4.1,9.1-9.1,9.1-9.1-4.1-9.1-9.1,4.1-9.1,9.1-9.1ZM615.8,263.7c5,0,9.1,4.1,9.1,9.1s-4.1,9.1-9.1,9.1-9.1-4.1-9.1-9.1,4.1-9.1,9.1-9.1ZM329.2,623.7c5.1,0,9.2,4.1,9.2,9.2s-4.1,9.2-9.2,9.2-9.2-4.1-9.2-9.2,4.1-9.2,9.2-9.2ZM297.2,163.8c5.1,0,9.2,4.1,9.2,9.2s-4.1,9.2-9.2,9.2-9.2-4.1-9.2-9.2,4.1-9.2,9.2-9.2ZM632.1,481.9c5.1,0,9.2,4.1,9.2,9.2s-4.1,9.2-9.2,9.2-9.2-4.1-9.2-9.2,4.1-9.2,9.2-9.2ZM169.5,473.5c5.1,0,9.2,4.1,9.2,9.2s-4.1,9.2-9.2,9.2-9.2-4.1-9.2-9.2,4.1-9.2,9.2-9.2ZM516.8,166.7c5.1,0,9.2,4.1,9.2,9.2s-4.1,9.2-9.2,9.2-9.2-4.1-9.2-9.2,4.1-9.2,9.2-9.2ZM467.9,628.2c5.1,0,9.3,4.2,9.3,9.3s-4.2,9.3-9.3,9.3-9.3-4.2-9.3-9.3,4.2-9.3,9.3-9.3ZM191.7,254.2c5.1,0,9.3,4.2,9.3,9.3s-4.2,9.3-9.3,9.3-9.3-4.2-9.3-9.3,4.2-9.3,9.3-9.3ZM648.8,343.6c5.1,0,9.3,4.2,9.3,9.3s-4.2,9.3-9.3,9.3-9.3-4.2-9.3-9.3,4.2-9.3,9.3-9.3ZM250.7,586.8c5.1,0,9.3,4.2,9.3,9.3s-4.2,9.3-9.3,9.3-9.3-4.2-9.3-9.3,4.2-9.3,9.3-9.3ZM380.1,137.8c5.1,0,9.3,4.2,9.3,9.3s-4.2,9.3-9.3,9.3-9.3-4.2-9.3-9.3,4.2-9.3,9.3-9.3ZM588.3,557c5.1,0,9.3,4.2,9.3,9.3s-4.2,9.3-9.3,9.3-9.3-4.2-9.3-9.3,4.2-9.3,9.3-9.3ZM150.9,388.1c5.2,0,9.4,4.2,9.4,9.4s-4.2,9.4-9.4,9.4-9.4-4.2-9.4-9.4,4.2-9.4,9.4-9.4ZM588.2,216.8c5.2,0,9.4,4.2,9.4,9.4s-4.2,9.4-9.4,9.4-9.4-4.2-9.4-9.4,4.2-9.4,9.4-9.4ZM381.2,639.2c5.2,0,9.4,4.2,9.4,9.4s-4.2,9.4-9.4,9.4-9.4-4.2-9.4-9.4,4.2-9.4,9.4-9.4ZM248.3,187.2c5.2,0,9.4,4.2,9.4,9.4s-4.2,9.4-9.4,9.4-9.4-4.2-9.4-9.4,4.2-9.4,9.4-9.4ZM652.2,431.1c5.2,0,9.4,4.2,9.4,9.4s-4.2,9.4-9.4,9.4-9.4-4.2-9.4-9.4,4.2-9.4,9.4-9.4ZM188.9,524.2c5.2,0,9.5,4.3,9.5,9.5s-4.3,9.5-9.5,9.5-9.5-4.3-9.5-9.5,4.3-9.5,9.5-9.5ZM468.1,141.9c5.2,0,9.5,4.3,9.5,9.5s-4.3,9.5-9.5,9.5-9.5-4.3-9.5-9.5,4.3-9.5,9.5-9.5ZM520.5,613.1c5.2,0,9.5,4.3,9.5,9.5s-4.3,9.5-9.5,9.5-9.5-4.3-9.5-9.5,4.3-9.5,9.5-9.5ZM162.9,300.5c5.2,0,9.5,4.3,9.5,9.5s-4.3,9.5-9.5,9.5-9.5-4.3-9.5-9.5,4.3-9.5,9.5-9.5ZM638.5,289.5c5.2,0,9.5,4.3,9.5,9.5s-4.3,9.5-9.5,9.5-9.5-4.3-9.5-9.5,4.3-9.5,9.5-9.5ZM294.8,619.4c5.2,0,9.5,4.3,9.5,9.5s-4.3,9.5-9.5,9.5-9.5-4.3-9.5-9.5,4.3-9.5,9.5-9.5ZM325.4,143.1c5.3,0,9.6,4.3,9.6,9.6s-4.3,9.6-9.6,9.6-9.6-4.3-9.6-9.6,4.3-9.6,9.6-9.6ZM625,515.5c5.3,0,9.6,4.3,9.6,9.6s-4.3,9.6-9.6,9.6-9.6-4.3-9.6-9.6,4.3-9.6,9.6-9.6ZM151.8,443.1c5.3,0,9.6,4.3,9.6,9.6s-4.3,9.6-9.6,9.6-9.6-4.3-9.6-9.6,4.3-9.6,9.6-9.6ZM550.2,176.4c5.3,0,9.6,4.3,9.6,9.6s-4.3,9.6-9.6,9.6-9.6-4.3-9.6-9.6,4.3-9.6,9.6-9.6ZM436.4,643c5.3,0,9.6,4.3,9.6,9.6s-4.3,9.6-9.6,9.6-9.6-4.3-9.6-9.6,4.3-9.6,9.6-9.6ZM204.8,221.3c5.4,0,9.7,4.3,9.7,9.7s-4.3,9.7-9.7,9.7-9.7-4.3-9.7-9.7,4.3-9.7,9.7-9.7ZM661,376c5.4,0,9.7,4.3,9.7,9.7s-4.3,9.7-9.7,9.7-9.7-4.3-9.7-9.7,4.3-9.7,9.7-9.7ZM219.5,570.4c5.4,0,9.7,4.3,9.7,9.7s-4.3,9.7-9.7,9.7-9.7-4.3-9.7-9.7,4.3-9.7,9.7-9.7ZM414,128.1c5.4,0,9.7,4.3,9.7,9.7s-4.3,9.7-9.7,9.7-9.7-4.3-9.7-9.7,4.3-9.7,9.7-9.7ZM569.6,586.4c5.4,0,9.7,4.3,9.7,9.7s-4.3,9.7-9.7,9.7-9.7-4.3-9.7-9.7,4.3-9.7,9.7-9.7ZM144.7,353.2c5.4,0,9.7,4.3,9.7,9.7s-4.3,9.7-9.7,9.7-9.7-4.3-9.7-9.7,4.3-9.7,9.7-9.7ZM616.3,237.8c5.4,0,9.8,4.4,9.8,9.8s-4.4,9.8-9.8,9.8-9.8-4.4-9.8-9.8,4.4-9.8,9.8-9.8ZM346,642c5.4,0,9.8,4.4,9.8,9.8s-4.4,9.8-9.8,9.8-9.8-4.4-9.8-9.8,4.4-9.8,9.8-9.8ZM262.4,168.8c.9-5.3,5.9-9,11.2-8.1s9,5.9,8.1,11.2-5.9,9-11.2,8.1-9-5.9-8.1-11.2ZM652.3,466.2c5.4,0,9.8,4.4,9.8,9.8s-4.4,9.8-9.8,9.8-9.8-4.4-9.8-9.8,4.4-9.8,9.8-9.8ZM164.9,497.7c5.4,0,9.8,4.4,9.8,9.8s-4.4,9.8-9.8,9.8-9.8-4.4-9.8-9.8,4.4-9.8,9.8-9.8ZM503.5,144.7c5.4,0,9.8,4.4,9.8,9.8s-4.4,9.8-9.8,9.8-9.8-4.4-9.8-9.8,4.4-9.8,9.8-9.8ZM492.2,634.4c5.5,0,9.9,4.4,9.9,9.9s-4.4,9.9-9.9,9.9-9.9-4.4-9.9-9.9,4.4-9.9,9.9-9.9ZM169.2,265.1c5.5,0,9.9,4.4,9.9,9.9s-4.4,9.9-9.9,9.9-9.9-4.4-9.9-9.9,4.4-9.9,9.9-9.9ZM657.6,319.2c5.5,0,9.9,4.4,9.9,9.9s-4.4,9.9-9.9,9.9-9.9-4.4-9.9-9.9,4.4-9.9,9.9-9.9ZM260.3,609.6c5.5,0,9.9,4.4,9.9,9.9s-4.4,9.9-9.9,9.9-9.9-4.4-9.9-9.9,4.4-9.9,9.9-9.9ZM357.2,126.4c5.5,0,9.9,4.4,9.9,9.9s-4.4,9.9-9.9,9.9-9.9-4.4-9.9-9.9,4.4-9.9,9.9-9.9ZM612.5,548.7c5.5,0,10,4.5,10,10s-4.5,10-10,10-10-4.5-10-10,4.5-10,10-10ZM138.2,409.5c5.5,0,10,4.5,10,10s-4.5,10-10,10-10-4.5-10-10,4.5-10,10-10ZM582.7,191.5c5.5,0,10,4.5,10,10s-4.5,10-10,10-10-4.5-10-10,4.5-10,10-10ZM402,653.1c5.5,0,10,4.5,10,10s-4.5,10-10,10-10-4.5-10-10,4.5-10,10-10ZM223.1,190c5.5,0,10,4.5,10,10s-4.5,10-10,10-10-4.5-10-10,4.5-10,10-10ZM668.5,411c5.5,0,10,4.5,10,10s-4.5,10-10,10-10-4.5-10-10,4.5-10,10-10ZM190.1,549c5.6,0,10.1,4.5,10.1,10.1s-4.5,10.1-10.1,10.1-10.1-4.5-10.1-10.1,4.5-10.1,10.1-10.1ZM450,123.4c5.6,0,10.1,4.5,10.1,10.1s-4.5,10.1-10.1,10.1-10.1-4.5-10.1-10.1,4.5-10.1,10.1-10.1ZM546,613.4c5.6,0,10.1,4.5,10.1,10.1s-4.5,10.1-10.1,10.1-10.1-4.5-10.1-10.1,4.5-10.1,10.1-10.1ZM143.6,316.5c5.6,0,10.1,4.5,10.1,10.1s-4.5,10.1-10.1,10.1-10.1-4.5-10.1-10.1,4.5-10.1,10.1-10.1ZM641.6,263.6c5.6,0,10.1,4.5,10.1,10.1s-4.5,10.1-10.1,10.1-10.1-4.5-10.1-10.1,4.5-10.1,10.1-10.1ZM309.6,639.6c5.6,0,10.1,4.5,10.1,10.1s-4.5,10.1-10.1,10.1-10.1-4.5-10.1-10.1,4.5-10.1,10.1-10.1ZM300.4,137.3c5.6,0,10.2,4.6,10.2,10.2s-4.6,10.2-10.2,10.2-10.2-4.6-10.2-10.2,4.6-10.2,10.2-10.2ZM646.9,501.9c5.6,0,10.2,4.6,10.2,10.2s-4.6,10.2-10.2,10.2-10.2-4.6-10.2-10.2,4.6-10.2,10.2-10.2ZM144.4,467c5.6,0,10.2,4.6,10.2,10.2s-4.6,10.2-10.2,10.2-10.2-4.6-10.2-10.2,4.6-10.2,10.2-10.2ZM539,152.8c5.6,0,10.2,4.6,10.2,10.2s-4.6,10.2-10.2,10.2-10.2-4.6-10.2-10.2,4.6-10.2,10.2-10.2ZM460.2,651.8c5.6,0,10.2,4.6,10.2,10.2s-4.6,10.2-10.2,10.2-10.2-4.6-10.2-10.2,4.6-10.2,10.2-10.2ZM180.9,230c5.6,0,10.2,4.6,10.2,10.2s-4.6,10.2-10.2,10.2-10.2-4.6-10.2-10.2,4.6-10.2,10.2-10.2ZM672.4,352.4c5.7,0,10.3,4.6,10.3,10.3s-4.6,10.3-10.3,10.3-10.3-4.6-10.3-10.3,4.6-10.3,10.3-10.3ZM226.6,594.5c5.7,0,10.3,4.6,10.3,10.3s-4.6,10.3-10.3,10.3-10.3-4.6-10.3-10.3,4.6-10.3,10.3-10.3ZM392.1,114.2c5.7,0,10.3,4.6,10.3,10.3s-4.6,10.3-10.3,10.3-10.3-4.6-10.3-10.3,4.6-10.3,10.3-10.3ZM594.8,580.7c5.7,0,10.3,4.6,10.3,10.3s-4.6,10.3-10.3,10.3-10.3-4.6-10.3-10.3,4.6-10.3,10.3-10.3ZM129.5,373.3c5.7,0,10.3,4.6,10.3,10.3s-4.6,10.3-10.3,10.3-10.3-4.6-10.3-10.3,4.6-10.3,10.3-10.3ZM613.4,211.8c5.7,0,10.3,4.6,10.3,10.3s-4.6,10.3-10.3,10.3-10.3-4.6-10.3-10.3,4.6-10.3,10.3-10.3ZM365.4,658.3c5.7,0,10.4,4.7,10.4,10.4s-4.7,10.4-10.4,10.4-10.4-4.7-10.4-10.4,4.7-10.4,10.4-10.4ZM246.4,160.8c5.7,0,10.4,4.7,10.4,10.4s-4.7,10.4-10.4,10.4-10.4-4.7-10.4-10.4,4.7-10.4,10.4-10.4ZM670.8,447.6c5.7,0,10.4,4.7,10.4,10.4s-4.7,10.4-10.4,10.4-10.4-4.7-10.4-10.4,4.7-10.4,10.4-10.4ZM163.1,522.9c5.7-.2,10.6,4.3,10.8,10s-4.3,10.6-10,10.8-10.6-4.3-10.8-10,4.3-10.6,10-10.8ZM487.1,124.1c5.7,0,10.4,4.7,10.4,10.4s-4.7,10.4-10.4,10.4-10.4-4.7-10.4-10.4,4.7-10.4,10.4-10.4ZM517.8,637.5c5.7,0,10.4,4.7,10.4,10.4s-4.7,10.4-10.4,10.4-10.4-4.7-10.4-10.4,4.7-10.4,10.4-10.4ZM147.9,279.1c5.8,0,10.5,4.7,10.5,10.5s-4.7,10.5-10.5,10.5-10.5-4.7-10.5-10.5,4.7-10.5,10.5-10.5ZM663.4,293.4c5.8,0,10.5,4.7,10.5,10.5s-4.7,10.5-10.5,10.5-10.5-4.7-10.5-10.5,4.7-10.5,10.5-10.5ZM273,631.6c5.8,0,10.5,4.7,10.5,10.5s-4.7,10.5-10.5,10.5-10.5-4.7-10.5-10.5,4.7-10.5,10.5-10.5ZM332.6,117.8c5.8,0,10.5,4.7,10.5,10.5s-4.7,10.5-10.5,10.5-10.5-4.7-10.5-10.5,4.7-10.5,10.5-10.5ZM636.1,537.4c5.8,0,10.5,4.7,10.5,10.5s-4.7,10.5-10.5,10.5-10.5-4.7-10.5-10.5,4.7-10.5,10.5-10.5ZM128.2,432.8c5.9,0,10.6,4.7,10.6,10.6s-4.7,10.6-10.6,10.6-10.6-4.7-10.6-10.6,4.7-10.6,10.6-10.6ZM573.9,166.4c5.9,0,10.6,4.7,10.6,10.6s-4.7,10.6-10.6,10.6-10.6-4.7-10.6-10.6,4.7-10.6,10.6-10.6ZM425,664.6c5.9,0,10.6,4.7,10.6,10.6s-4.7,10.6-10.6,10.6-10.6-4.7-10.6-10.6,4.7-10.6,10.6-10.6ZM198,196.1c5.9,0,10.6,4.7,10.6,10.6s-4.7,10.6-10.6,10.6-10.6-4.7-10.6-10.6,4.7-10.6,10.6-10.6ZM682.5,388.5c5.9,0,10.6,4.7,10.6,10.6s-4.7,10.6-10.6,10.6-10.6-4.7-10.6-10.6,4.7-10.6,10.6-10.6ZM194.6,574.1c5.9,0,10.6,4.7,10.6,10.6s-4.7,10.6-10.6,10.6-10.6-4.7-10.6-10.6,4.7-10.6,10.6-10.6ZM429.3,106.9c5.9,0,10.7,4.8,10.7,10.7s-4.8,10.7-10.7,10.7-10.7-4.8-10.7-10.7,4.8-10.7,10.7-10.7ZM571.9,610.5c5.9,0,10.7,4.8,10.7,10.7s-4.8,10.7-10.7,10.7-10.7-4.8-10.7-10.7,4.8-10.7,10.7-10.7ZM126,335.2c5.9,0,10.7,4.8,10.7,10.7s-4.8,10.7-10.7,10.7-10.7-4.8-10.7-10.7,4.8-10.7,10.7-10.7ZM641.5,236.8c5.9,0,10.7,4.8,10.7,10.7s-4.8,10.7-10.7,10.7-10.7-4.8-10.7-10.7,4.8-10.7,10.7-10.7ZM327.4,658.1c5.9,0,10.7,4.8,10.7,10.7s-4.8,10.7-10.7,10.7-10.7-4.8-10.7-10.7,4.8-10.7,10.7-10.7ZM274.4,134.7c5.9,0,10.7,4.8,10.7,10.7s-4.8,10.7-10.7,10.7-10.7-4.8-10.7-10.7,4.8-10.7,10.7-10.7ZM667.6,485.3c5.9,0,10.7,4.8,10.7,10.7s-4.8,10.7-10.7,10.7-10.7-4.8-10.7-10.7,4.8-10.7,10.7-10.7ZM140.1,492.3c6,0,10.8,4.8,10.8,10.8s-4.8,10.8-10.8,10.8-10.8-4.8-10.8-10.8,4.8-10.8,10.8-10.8ZM524.7,130.3c6,0,10.8,4.8,10.8,10.8s-4.8,10.8-10.8,10.8-10.8-4.8-10.8-10.8,4.8-10.8,10.8-10.8ZM485.6,657.7c6,0,10.8,4.8,10.8,10.8s-4.8,10.8-10.8,10.8-10.8-4.8-10.8-10.8,4.8-10.8,10.8-10.8ZM157.8,241.8c6,0,10.8,4.8,10.8,10.8s-4.8,10.8-10.8,10.8-10.8-4.8-10.8-10.8,4.8-10.8,10.8-10.8ZM681.1,327.1c6,0,10.8,4.8,10.8,10.8s-4.8,10.8-10.8,10.8-10.8-4.8-10.8-10.8,4.8-10.8,10.8-10.8ZM237,618.1c6,0,10.8,4.8,10.8,10.8s-4.8,10.8-10.8,10.8-10.8-4.8-10.8-10.8,4.8-10.8,10.8-10.8ZM368.1,102.8c6,0,10.9,4.9,10.9,10.9s-4.9,10.9-10.9,10.9-10.9-4.9-10.9-10.9,4.9-10.9,10.9-10.9ZM619.8,571.8c6,0,10.9,4.9,10.9,10.9s-4.9,10.9-10.9,10.9-10.9-4.9-10.9-10.9,4.9-10.9,10.9-10.9ZM116.7,395.8c6,0,10.9,4.9,10.9,10.9s-4.9,10.9-10.9,10.9-10.9-4.9-10.9-10.9,4.9-10.9,10.9-10.9ZM607.2,185.5c6,0,10.9,4.9,10.9,10.9s-4.9,10.9-10.9,10.9-10.9-4.9-10.9-10.9,4.9-10.9,10.9-10.9ZM387.3,672.5c6,0,10.9,4.9,10.9,10.9s-4.9,10.9-10.9,10.9-10.9-4.9-10.9-10.9,4.9-10.9,10.9-10.9ZM220.3,164.2c6,0,10.9,4.9,10.9,10.9s-4.9,10.9-10.9,10.9-10.9-4.9-10.9-10.9,4.9-10.9,10.9-10.9ZM687.3,426.4c6.1,0,11,4.9,11,11s-4.9,11-11,11-11-4.9-11-11,4.9-11,11-11ZM165.1,548.6c6.1,0,11,4.9,11,11s-4.9,11-11,11-11-4.9-11-11,4.9-11,11-11ZM468,105.2c6.1,0,11,4.9,11,11s-4.9,11-11,11-11-4.9-11-11,4.9-11,11-11ZM544.3,637.5c6.1,0,11,4.9,11,11s-4.9,11-11,11-11-4.9-11-11,4.9-11,11-11ZM128,296.1c6.1,0,11,4.9,11,11s-4.9,11-11,11-11-4.9-11-11,4.9-11,11-11ZM666.2,266.6c6.1,0,11,4.9,11,11s-4.9,11-11,11-11-4.9-11-11,4.9-11,11-11ZM278,663c.4-6.1,5.8-10.7,11.9-10.3s10.7,5.8,10.3,11.9-5.8,10.7-11.9,10.3-10.7-5.8-10.3-11.9ZM306.5,112.2c6.1,0,11.1,5,11.1,11.1s-5,11.1-11.1,11.1-11.1-5-11.1-11.1,5-11.1,11.1-11.1ZM658.7,522.9c6.1,0,11.1,5,11.1,11.1s-5,11.1-11.1,11.1-11.1-5-11.1-11.1,5-11.1,11.1-11.1ZM120.9,457.9c6.1,0,11.1,5,11.1,11.1s-5,11.1-11.1,11.1-11.1-5-11.1-11.1,5-11.1,11.1-11.1ZM561.9,142.2c6.1,0,11.1,5,11.1,11.1s-5,11.1-11.1,11.1-11.1-5-11.1-11.1,5-11.1,11.1-11.1ZM449.9,673.5c6.1,0,11.1,5,11.1,11.1s-5,11.1-11.1,11.1-11.1-5-11.1-11.1,5-11.1,11.1-11.1ZM173.3,205.4c6.2,0,11.2,5,11.2,11.2s-5,11.2-11.2,11.2-11.2-5-11.2-11.2,5-11.2,11.2-11.2ZM694,363.8c6.2,0,11.2,5,11.2,11.2s-5,11.2-11.2,11.2-11.2-5-11.2-11.2,5-11.2,11.2-11.2ZM202.4,599c6.2,0,11.2,5,11.2,11.2s-5,11.2-11.2,11.2-11.2-5-11.2-11.2,5-11.2,11.2-11.2ZM406.3,92.9c6.2,0,11.2,5,11.2,11.2s-5,11.2-11.2,11.2-11.2-5-11.2-11.2,5-11.2,11.2-11.2ZM598.1,604.4c6.2,0,11.2,5,11.2,11.2s-5,11.2-11.2,11.2-11.2-5-11.2-11.2,5-11.2,11.2-11.2ZM110.5,356.5c6.2,0,11.2,5,11.2,11.2s-5,11.2-11.2,11.2-11.2-5-11.2-11.2,5-11.2,11.2-11.2ZM638.1,209.8c6.2,0,11.2,5,11.2,11.2s-5,11.2-11.2,11.2-11.2-5-11.2-11.2,5-11.2,11.2-11.2ZM347.8,674.8c6.2,0,11.3,5.1,11.3,11.3s-5.1,11.3-11.3,11.3-11.3-5.1-11.3-11.3,5.1-11.3,11.3-11.3ZM247.6,135.1c6.2,0,11.3,5.1,11.3,11.3s-5.1,11.3-11.3,11.3-11.3-5.1-11.3-11.3,5.1-11.3,11.3-11.3ZM686.6,465.8c6.2,0,11.3,5.1,11.3,11.3s-5.1,11.3-11.3,11.3-11.3-5.1-11.3-11.3,5.1-11.3,11.3-11.3ZM138.9,518.6c6.2,0,11.3,5.1,11.3,11.3s-5.1,11.3-11.3,11.3-11.3-5.1-11.3-11.3,5.1-11.3,11.3-11.3ZM507.5,109.2c6.2,0,11.3,5.1,11.3,11.3s-5.1,11.3-11.3,11.3-11.3-5.1-11.3-11.3,5.1-11.3,11.3-11.3ZM512.2,660.7c6.2,0,11.3,5.1,11.3,11.3s-5.1,11.3-11.3,11.3-11.3-5.1-11.3-11.3,5.1-11.3,11.3-11.3ZM135.7,256.6c6.3,0,11.4,5.1,11.4,11.4s-5.1,11.4-11.4,11.4-11.4-5.1-11.4-11.4,5.1-11.4,11.4-11.4ZM686.9,300.2c6.3,0,11.4,5.1,11.4,11.4s-5.1,11.4-11.4,11.4-11.4-5.1-11.4-11.4,5.1-11.4,11.4-11.4ZM250.5,640.8c6.3,0,11.4,5.1,11.4,11.4s-5.1,11.4-11.4,11.4-11.4-5.1-11.4-11.4,5.1-11.4,11.4-11.4ZM342.4,94.3c6.3,0,11.4,5.1,11.4,11.4s-5.1,11.4-11.4,11.4-11.4-5.1-11.4-11.4,5.1-11.4,11.4-11.4ZM644.2,559.9c6.3,0,11.4,5.1,11.4,11.4s-5.1,11.4-11.4,11.4-11.4-5.1-11.4-11.4,5.1-11.4,11.4-11.4ZM106.5,420.2c6.3,0,11.4,5.1,11.4,11.4s-5.1,11.4-11.4,11.4-11.4-5.1-11.4-11.4,5.1-11.4,11.4-11.4ZM597.8,159.6c6.4,0,11.5,5.1,11.5,11.5s-5.1,11.5-11.5,11.5-11.5-5.1-11.5-11.5,5.1-11.5,11.5-11.5ZM411.3,684.2c6.4,0,11.5,5.1,11.5,11.5s-5.1,11.5-11.5,11.5-11.5-5.1-11.5-11.5,5.1-11.5,11.5-11.5ZM194.2,170.8c6.4,0,11.5,5.1,11.5,11.5s-5.1,11.5-11.5,11.5-11.5-5.1-11.5-11.5,5.1-11.5,11.5-11.5ZM701.7,403c6.4,0,11.5,5.1,11.5,11.5s-5.1,11.5-11.5,11.5-11.5-5.1-11.5-11.5,5.1-11.5,11.5-11.5ZM170,574.8c6.4,0,11.5,5.1,11.5,11.5s-5.1,11.5-11.5,11.5-11.5-5.1-11.5-11.5,5.1-11.5,11.5-11.5ZM446.4,88.4c6.4,0,11.5,5.1,11.5,11.5s-5.1,11.5-11.5,11.5-11.5-5.1-11.5-11.5,5.1-11.5,11.5-11.5ZM571.3,634.2c6.4,0,11.6,5.2,11.6,11.6s-5.2,11.6-11.6,11.6-11.6-5.2-11.6-11.6,5.2-11.6,11.6-11.6ZM109.9,315.7c6.4,0,11.6,5.2,11.6,11.6s-5.2,11.6-11.6,11.6-11.6-5.2-11.6-11.6,5.2-11.6,11.6-11.6ZM665.9,238.8c6.4,0,11.6,5.2,11.6,11.6s-5.2,11.6-11.6,11.6-11.6-5.2-11.6-11.6,5.2-11.6,11.6-11.6ZM307.4,671.6c6.4,0,11.6,5.2,11.6,11.6s-5.2,11.6-11.6,11.6-11.6-5.2-11.6-11.6,5.2-11.6,11.6-11.6ZM279.4,109.7c6.4,0,11.6,5.2,11.6,11.6s-5.2,11.6-11.6,11.6-11.6-5.2-11.6-11.6,5.2-11.6,11.6-11.6ZM680.1,505.5c6.4,0,11.6,5.2,11.6,11.6s-5.2,11.6-11.6,11.6-11.6-5.2-11.6-11.6,5.2-11.6,11.6-11.6ZM116.6,484.3c6.4,0,11.6,5.2,11.6,11.6s-5.2,11.6-11.6,11.6-11.6-5.2-11.6-11.6,5.2-11.6,11.6-11.6ZM546.9,118.8c6.5,0,11.7,5.2,11.7,11.7s-5.2,11.7-11.7,11.7-11.7-5.2-11.7-11.7,5.2-11.7,11.7-11.7ZM476.4,679.5c6.5,0,11.7,5.2,11.7,11.7s-5.2,11.7-11.7,11.7-11.7-5.2-11.7-11.7,5.2-11.7,11.7-11.7ZM149.2,217.9c6.5,0,11.7,5.2,11.7,11.7s-5.2,11.7-11.7,11.7-11.7-5.2-11.7-11.7,5.2-11.7,11.7-11.7ZM702.9,337.5c6.5,0,11.7,5.2,11.7,11.7s-5.2,11.7-11.7,11.7-11.7-5.2-11.7-11.7,5.2-11.7,11.7-11.7ZM213.3,623.6c6.5,0,11.7,5.2,11.7,11.7s-5.2,11.7-11.7,11.7-11.7-5.2-11.7-11.7,5.2-11.7,11.7-11.7ZM381.2,81.3c6.5,0,11.7,5.2,11.7,11.7s-5.2,11.7-11.7,11.7-11.7-5.2-11.7-11.7,5.2-11.7,11.7-11.7ZM624,595.1c6.5,0,11.8,5.3,11.8,11.8s-5.3,11.8-11.8,11.8-11.8-5.3-11.8-11.8,5.3-11.8,11.8-11.8ZM97.3,379.9c6.5,0,11.8,5.3,11.8,11.8s-5.3,11.8-11.8,11.8-11.8-5.3-11.8-11.8,5.3-11.8,11.8-11.8ZM631.6,182.6c6.5,0,11.8,5.3,11.8,11.8s-5.3,11.8-11.8,11.8-11.8-5.3-11.8-11.8,5.3-11.8,11.8-11.8ZM370.7,689.6c6.5,0,11.8,5.3,11.8,11.8s-5.3,11.8-11.8,11.8-11.8-5.3-11.8-11.8,5.3-11.8,11.8-11.8ZM220.4,138.8c6.5,0,11.8,5.3,11.8,11.8s-5.3,11.8-11.8,11.8-11.8-5.3-11.8-11.8,5.3-11.8,11.8-11.8ZM703.8,443.8c6.5,0,11.8,5.3,11.8,11.8s-5.3,11.8-11.8,11.8-11.8-5.3-11.8-11.8,5.3-11.8,11.8-11.8ZM140.7,545.5c6.5,0,11.8,5.3,11.8,11.8s-5.3,11.8-11.8,11.8-11.8-5.3-11.8-11.8,5.3-11.8,11.8-11.8ZM475.8,98.5c1.6-6.4,8-10.3,14.4-8.7s10.3,8,8.7,14.4-8,10.3-14.4,8.7-10.3-8-8.7-14.4ZM539.8,660.6c6.6,0,11.9,5.3,11.9,11.9s-5.3,11.9-11.9,11.9-11.9-5.3-11.9-11.9,5.3-11.9,11.9-11.9Z"/>
  </g>
</svg>