<?xml version="1.0" encoding="UTF-8"?>
<svg id="Layer_1" xmlns="http://www.w3.org/2000/svg" version="1.1" viewBox="0 0 302 302">
  <!-- Generator: Adobe Illustrator 30.1.0, SVG Export Plug-In . SVG Version: 2.1.1 Build 136)  -->
  <defs>
    <style>
      .st0 {
        fill: none;
      }

      .st1 {
        fill: #fff;
      }
    </style>
  </defs>
  <g id="Layer_11" data-name="Layer_1">
    <g id="Layer_2">
      <circle cx="150.6" cy="150.6" r="150"/>
    </g>
  </g>
  <g>
    <path class="st1" d="M150.7,205.2c30,0,54.3-24.3,54.3-54.3s0-.2,0-.3c0,0,0,0,0-.1v-86c0-9.2-7.5-16.7-16.7-16.7s-16.7,7.5-16.7,16.7v36.3c-6.4-2.7-13.5-4.2-20.9-4.2-30,0-54.3,24.3-54.3,54.3s24.3,54.3,54.3,54.3ZM150.8,130.2c11.5,0,20.8,9.3,20.8,20.8s-9.3,20.8-20.8,20.8-20.8-9.3-20.8-20.8,9.3-20.8,20.8-20.8Z"/>
    <path class="st1" d="M204.8,150.6c0-30-24.3-54.3-54.3-54.3s-.2,0-.3,0c0,0,0,0-.1,0h-86c-9.2,0-16.7,7.5-16.7,16.7s7.5,16.7,16.7,16.7h36.3c-2.7,6.4-4.2,13.5-4.2,20.9,0,30,24.3,54.3,54.3,54.3s54.3-24.3,54.3-54.3ZM129.9,150.5c0-11.5,9.3-20.8,20.8-20.8s20.8,9.3,20.8,20.8-9.3,20.8-20.8,20.8-20.8-9.3-20.8-20.8Z"/>
    <path class="st1" d="M96.4,150.6c0,30,24.3,54.3,54.3,54.3s.2,0,.3,0c0,0,0,0,.1,0h86c9.2,0,16.7-7.5,16.7-16.7s-7.5-16.7-16.7-16.7h-36.3c2.7-6.4,4.2-13.5,4.2-20.9,0-30-24.3-54.3-54.3-54.3s-54.3,24.3-54.3,54.3ZM171.4,150.7c0,11.5-9.3,20.8-20.8,20.8s-20.8-9.3-20.8-20.8,9.3-20.8,20.8-20.8,20.8,9.3,20.8,20.8Z"/>
    <path class="st1" d="M189,189c21.2-21.2,21.2-55.6,0-76.9,0,0-.1-.1-.2-.2,0,0,0,0,0-.1l-60.8-60.8c-6.5-6.5-17.1-6.5-23.7,0-6.5,6.5-6.5,17.1,0,23.7l25.6,25.6c-6.5,2.7-12.5,6.6-17.8,11.9-21.2,21.2-21.2,55.6,0,76.9,21.2,21.2,55.6,21.2,76.9,0ZM136,135.9c8.1-8.1,21.3-8.1,29.4,0,8.1,8.1,8.1,21.3,0,29.4-8.1,8.1-21.3,8.1-29.4,0-8.1-8.1-8.1-21.3,0-29.4Z"/>
    <path class="st1" d="M112.3,112.3c-21.2,21.2-21.2,55.6,0,76.9,0,0,.1.1.2.2,0,0,0,0,0,.1l60.8,60.8c6.5,6.5,17.1,6.5,23.7,0,6.5-6.5,6.5-17.1,0-23.7l-25.6-25.6c6.5-2.7,12.5-6.6,17.8-11.9,21.2-21.2,21.2-55.6,0-76.9-21.2-21.2-55.6-21.2-76.9,0ZM165.2,165.4c-8.1,8.1-21.3,8.1-29.4,0-8.1-8.1-8.1-21.3,0-29.4,8.1-8.1,21.3-8.1,29.4,0,8.1,8.1,8.1,21.3,0,29.4Z"/>
    <path class="st1" d="M112.3,189c21.2,21.2,55.6,21.2,76.9,0s.1-.1.2-.2c0,0,0,0,.1,0l60.8-60.8c6.5-6.5,6.5-17.1,0-23.7-6.5-6.5-17.1-6.5-23.7,0l-25.6,25.6c-2.7-6.5-6.6-12.5-11.9-17.8-21.2-21.2-55.6-21.2-76.9,0-21.2,21.2-21.2,55.6,0,76.9ZM165.4,136c8.1,8.1,8.1,21.3,0,29.4-8.1,8.1-21.3,8.1-29.4,0-8.1-8.1-8.1-21.3,0-29.4,8.1-8.1,21.3-8.1,29.4,0Z"/>
    <path class="st1" d="M189,112.3c-21.2-21.2-55.6-21.2-76.9,0,0,0-.1.1-.2.2,0,0,0,0-.1,0l-60.8,60.8c-6.5,6.5-6.5,17.1,0,23.7s17.1,6.5,23.7,0l25.6-25.6c2.7,6.5,6.6,12.5,11.9,17.8,21.2,21.2,55.6,21.2,76.9,0,21.2-21.2,21.2-55.6,0-76.9ZM135.9,165.2c-8.1-8.1-8.1-21.3,0-29.4,8.1-8.1,21.3-8.1,29.4,0s8.1,21.3,0,29.4c-8.1,8.1-21.3,8.1-29.4,0Z"/>
    <g>
      <path class="st0" d="M150.6,130.1c-11.5,0-20.8,9.3-20.8,20.8s9.3,20.8,20.8,20.8,20.8-9.3,20.8-20.8-9.3-20.8-20.8-20.8Z"/>
      <path class="st1" d="M150.7,96.7c-30,0-54.3,24.3-54.3,54.3s0,.2,0,.3c0,0,0,0,0,.1v86c0,9.2,7.5,16.7,16.7,16.7s16.7-7.5,16.7-16.7v-36.3c6.4,2.7,13.5,4.2,20.9,4.2,30,0,54.3-24.3,54.3-54.3s-24.3-54.3-54.3-54.3ZM150.6,171.7c-11.5,0-20.8-9.3-20.8-20.8s9.3-20.8,20.8-20.8,20.8,9.3,20.8,20.8-9.3,20.8-20.8,20.8Z"/>
    </g>
  </g>
</svg>