<?xml version="1.0" encoding="UTF-8"?>
<svg id="Layer_6" xmlns="http://www.w3.org/2000/svg" xmlns:xlink="http://www.w3.org/1999/xlink" version="1.1" viewBox="0 0 610.8 213.4">
  <!-- Generator: Adobe Illustrator 30.1.0, SVG Export Plug-In . SVG Version: 2.1.1 Build 136)  -->
  <defs>
    <style>
      .st0 {
        fill: url(#New_Gradient_Swatch_21);
      }

      .st1 {
        fill: url(#New_Gradient_Swatch_22);
      }

      .st2 {
        fill: url(#New_Gradient_Swatch_23);
      }

      .st3 {
        fill: url(#New_Gradient_Swatch_24);
      }

      .st4 {
        fill: url(#New_Gradient_Swatch_25);
      }

      .st5 {
        fill: url(#New_Gradient_Swatch_26);
      }

      .st6 {
        fill: url(#New_Gradient_Swatch_2);
      }

      .st7 {
        fill: #29abee;
      }
    </style>
    <linearGradient id="New_Gradient_Swatch_2" data-name="New Gradient Swatch 2" x1="29.7" y1="183.1" x2="614.3" y2="52.4" gradientUnits="userSpaceOnUse">
      <stop offset="0" stop-color="#8131fe"/>
      <stop offset="0" stop-color="#7d3afd"/>
      <stop offset=".3" stop-color="#7453fc"/>
      <stop offset=".5" stop-color="#647cfa"/>
      <stop offset=".5" stop-color="#5f8dfa"/>
      <stop offset="1" stop-color="#2dc0f7"/>
    </linearGradient>
    <linearGradient id="New_Gradient_Swatch_21" data-name="New Gradient Swatch 2" x1="25.5" y1="164.5" x2="610.1" y2="33.8" xlink:href="#New_Gradient_Swatch_2"/>
    <linearGradient id="New_Gradient_Swatch_22" data-name="New Gradient Swatch 2" x1="18.9" y1="135.2" x2="603.6" y2="4.5" xlink:href="#New_Gradient_Swatch_2"/>
    <linearGradient id="New_Gradient_Swatch_23" data-name="New Gradient Swatch 2" x1="26.3" y1="168.3" x2="610.9" y2="37.6" xlink:href="#New_Gradient_Swatch_2"/>
    <linearGradient id="New_Gradient_Swatch_24" data-name="New Gradient Swatch 2" x1="18.2" y1="131.7" x2="602.8" y2="1" xlink:href="#New_Gradient_Swatch_2"/>
    <linearGradient id="New_Gradient_Swatch_25" data-name="New Gradient Swatch 2" x1="30.5" y1="187" x2="615.1" y2="56.3" xlink:href="#New_Gradient_Swatch_2"/>
    <linearGradient id="New_Gradient_Swatch_26" data-name="New Gradient Swatch 2" x1="37.1" y1="216.6" x2="621.8" y2="85.9" xlink:href="#New_Gradient_Swatch_2"/>
  </defs>
  <path class="st6" d="M383.3,66.6c-20.8,0-37.8,16.9-37.7,37.7.1,20.6,17.1,37.4,37.7,37.3,20.7,0,37.4-16.9,37.4-37.5,0-20.7-16.7-37.4-37.4-37.5ZM383.1,118.6c-7.7,0-14.4-6.6-14.5-14.3-.1-7.8,6.3-14.5,14.1-14.7,8.2-.2,14.8,6.1,14.9,14.3.1,8.1-6.4,14.7-14.4,14.7Z"/>
  <path class="st0" d="M209,175.1c6.9.2,11.6-5.1,11.7-13.3,0-8,0-16,0-24.9,1.8.7,2.6,1.1,3.5,1.5,11.5,4.9,22.5,3.8,32.7-3.3,14.3-9.9,19.7-29.8,12.9-45.9-.8-2-1.8-3.9-3-5.6-8.3-12.7-23.8-19.6-38.8-16.5-18,3.7-30,18-30.1,36.5-.2,19.5,0,39,0,58.4,0,3.3.9,6.2,2.3,8.4,2,2.9,5.1,4.6,8.8,4.7ZM235.4,89.4c5.1,0,9.5,2.7,12,6.7,1.6,2.4,2.4,5.2,2.4,8.3-.2,8-7,14.5-14.9,14.2-4.9-.2-9.2-2.9-11.8-6.8-1.6-2.3-2.5-5.1-2.5-8,0-7.9,6.7-14.5,14.7-14.4Z"/>
  <path class="st1" d="M158.4,66.6c-20.7,0-37.6,16.5-37.8,37.2-.2,20.5,16.6,37.7,37.1,37.9,20.9.2,38-16.6,38-37.5,0-20.7-16.7-37.5-37.3-37.6ZM158.3,118.6c-7.9.1-14.8-6.7-14.7-14.6.1-7.9,6.5-14.3,14.4-14.4,8.1,0,14.6,6.4,14.6,14.6,0,7.9-6.4,14.3-14.3,14.4Z"/>
  <path class="st2" d="M342.2,110.2c-4.3-3.6-10.4-3.4-15.1.6-1.9,1.6-3.5,3.6-5.5,5.1-5.7,4.4-14.2,4.1-19.3-.6-5.1-4.7-6.1-13.2-2.4-19.3,3.6-6,11.1-8.6,17.9-5.6,2.9,1.3,5.4,3.7,7.7,6,4.7,4.8,11.2,5.6,16.2,1.8,5.1-3.9,5.8-10.1,1.6-16-7.5-10.6-18-15.4-26.7-15.6-21.9-.2-37.7,12.4-41.1,29.6-3.7,18.6,5.3,35.9,22.2,42.7,16.9,6.7,36.7.7,45.9-13.9,3.5-5.5,2.9-11.2-1.4-14.8Z"/>
  <path class="st3" d="M73.7,67.1c-18,3.7-30,18-30.1,36.5-.2,19.5,0,39,0,58.4,0,7.8,4.7,13.1,11.3,13.3,6.9.2,11.6-5.1,11.7-13.3,0-8,0-16,0-24.9,1.8.7,2.6,1.1,3.5,1.5,11.5,4.9,22.5,3.8,32.7-3.3,14.3-9.9,19.7-29.8,12.9-45.9-6.9-16.4-24.8-25.9-42-22.4ZM80.6,118.6c-7.7-.3-14.1-6.9-14.1-14.6,0-7.9,6.7-14.5,14.7-14.4,8.1.1,14.4,6.7,14.2,14.8-.2,8-7,14.5-14.9,14.2Z"/>
  <path class="st4" d="M497.5,46.2c0-1.9-.4-4-1.1-5.8-2.1-4.8-7.4-7.4-12.3-6.5-4.5.9-8.1,4.2-9.1,8.8-.2,1-.3,2.1-.4,3.2,0,.4,0,.9,0,1.3,0,7.6,0,15.3,0,23.8-1.8-.7-2.6-1.1-3.5-1.5-1.2-.5-2.5-1-3.7-1.4-5-1.4-9.7-1.8-14.1-1.4-5.1.7-10.1,2.7-14.9,6-1.3.9-2.4,1.8-3.6,2.8-1.9,1.8-3.7,4-5.5,6.4-.9,1.3-1.8,2.7-2.5,4.2-1.6,3.2-2.8,6.6-3.5,10.1,0,.3-.1.6-.2.9,0,.3-.1.6-.2.9-1.4,9.5.8,19.5,6.5,27.5,9.4,13.2,26.1,18.9,41.6,14.3,8.7-2.6,15.8-7.8,20.4-14.8,0-.2.2-.3.3-.4,0,0,.1-.2.2-.3,2.2-3.5,3.7-7.4,4.7-11.6.5-2.3.8-4.8.8-7.3.3-19.8.1-39.6,0-59.5ZM459.9,118.7c-8.1-.1-14.4-6.7-14.2-14.8,0-.5,0-1,.1-1.6.9-7.2,7-12.8,14.4-12.8,7.1,0,12.9,5,14.2,11.8.2,1,.3,2,.3,3,0,7.9-6.7,14.5-14.7,14.4Z"/>
  <path class="st5" d="M573.7,93.6c-4.9-15.8-21.1-26.8-37.9-26.1-17.2.7-31.8,12.5-35.4,29.2-3.2,15,1,27.9,13.2,37.3,12.4,9.6,32.1,9.4,42.8,4,10.3-5.2,11-10.3,8.4-15.2-1.9-3.6-5.4-4-9.6-3.3-3.5.7-7.5,2.1-11.8,2.7-.2,0-.4,0-.7,0-.1,0-.3,0-.4,0-7.5,1-15-1.2-20.4-8.5.6,0,1.4,0,2.4,0,0,0,0,0,0,0,2.5,0,8.5,0,15.3,0,8.3,0,17.5,0,23.5,0,8.1,0,11.2-2.8,11.7-10.9.2-3.1-.2-6.4-1.2-9.3ZM523.9,97.4c3.7-6.6,9-9.1,15.6-9.1,6.2,0,11.1,2.6,14.5,9-10.2,0-19.8,0-30,0Z"/>
  <path class="st7" d="M568.2,136.6c0-3,2.3-5.4,5.3-5.4s5.3,2.4,5.3,5.4-2.3,5.4-5.3,5.4-5.3-2.4-5.3-5.4ZM577.9,136.6c0-2.5-1.9-4.5-4.4-4.5s-4.4,2-4.4,4.5,1.9,4.5,4.4,4.5,4.4-2,4.4-4.5ZM571.7,138.9v-4.7c0-.2.1-.4.4-.4h1.9c1.1,0,1.7.8,1.7,1.8s-.4,1.4-1.1,1.6l.9,1.6c.2.2,0,.4-.3.4h-.6c-.2,0-.3,0-.4-.3l-.8-1.6h-.5v1.5c0,.2-.1.4-.4.4h-.5c-.2,0-.4-.1-.4-.4ZM573.8,136.4c.4,0,.6-.3.6-.7s-.2-.8-.6-.8h-.9v1.5h.9Z"/>
</svg>