<?xml version="1.0" encoding="UTF-8"?>
<svg xmlns="http://www.w3.org/2000/svg" version="1.1" viewBox="0 0 800 800">
  <!-- Generator: Adobe Illustrator 30.1.0, SVG Export Plug-In . SVG Version: 2.1.1 Build 136)  -->
  <defs>
    <style>
      .st0 {
        fill: #1a1a18;
      }

      .st1 {
        fill: #fff;
      }
    </style>
  </defs>
  <g id="Layer_2">
    <circle class="st0" cx="400.6" cy="397.2" r="354.8"/>
  </g>
  <g id="_x32_">
    <g>
      <circle class="st1" cx="334" cy="375.1" r="2.1"/>
      <circle class="st1" cx="469.4" cy="366.1" r="2.2"/>
      <circle class="st1" cx="373.7" cy="466.1" r="2.2"/>
      <circle class="st1" cx="376.8" cy="325.2" r="2.3"/>
      <circle class="st1" cx="471.4" cy="433.1" r="2.3"/>
      <circle class="st1" cx="326.3" cy="417.1" r="2.4"/>
      <circle class="st1" cx="446.1" cy="329.5" r="2.4"/>
      <circle class="st1" cx="416.5" cy="477.3" r="2.4"/>
      <circle class="st1" cx="337.2" cy="346.3" r="2.5"/>
      <circle class="st1" cx="486.4" cy="390" r="2.5"/>
      <circle class="st1" cx="344.8" cy="459.6" r="2.6"/>
      <circle class="st1" cx="403.1" cy="310.5" r="2.6"/>
      <circle class="st1" cx="461.6" cy="461.9" r="2.6"/>
      <circle class="st1" cx="314.2" cy="388.8" r="2.7"/>
      <circle class="st1" cx="474.4" cy="342.6" r="2.7"/>
      <circle class="st1" cx="386.3" cy="486.7" r="2.8"/>
      <circle class="st1" cx="353.5" cy="318.9" r="2.8"/>
      <circle class="st1" cx="492.7" cy="421.7" r="2.8"/>
      <circle class="st1" cx="318.6" cy="440.1" r="2.9"/>
      <circle class="st1" cx="435.9" cy="307.3" r="2.9"/>
      <circle class="st1" cx="439.1" cy="486.5" r="3"/>
      <circle class="st1" cx="314.3" cy="355.1" r="3"/>
      <circle class="st1" cx="497.1" cy="367.9" r="3"/>
      <circle class="st1" cx="352.2" cy="483.1" r="3.1"/>
      <circle class="st1" cx="381.5" cy="298.3" r="3.1"/>
      <circle class="st1" cx="485.7" cy="456" r="3.2"/>
      <circle class="st1" cx="300.5" cy="409.7" r="3.2"/>
      <circle class="st1" cx="470" cy="317.8" r="3.2"/>
      <circle class="st1" cx="406.5" cy="501.8" r="3.3"/>
      <circle class="st1" cx="328.3" cy="321.5" r="3.3"/>
      <circle class="st1" cx="509.4" cy="402.4" r="3.4"/>
      <circle class="st1" cx="319.5" cy="465.7" r="3.4"/>
      <circle class="st1" cx="417.7" cy="289.2" r="3.4"/>
      <circle class="st1" cx="464.9" cy="487.4" r="3.5"/>
      <circle class="st1" cx="294.8" cy="372.1" r="3.5"/>
      <circle class="st1" cx="499.8" cy="341.9" r="3.5" transform="translate(82.2 780.5) rotate(-80.8)"/>
      <circle class="st1" cx="367.9" cy="504" r="3.6"/>
      <circle class="st1" cx="355.6" cy="293.7" r="3.6"/>
      <circle class="st1" cx="508" cy="441.6" r="3.6"/>
      <circle class="st1" cx="294" cy="435.5" r="3.7"/>
      <circle class="st1" cx="457.2" cy="294.4" r="3.7"/>
      <circle class="st1" cx="432" cy="510.3" r="3.7"/>
      <circle class="st1" cx="303.7" cy="332.7" r="3.8"/>
      <circle class="st1" cx="519.9" cy="377.4" r="3.8"/>
      <circle class="st1" cx="328.9" cy="491.3" r="3.8"/>
      <circle class="st1" cx="393.3" cy="276.7" r="3.9"/>
      <circle class="st1" cx="491.4" cy="479.9" r="3.9"/>
      <circle class="st1" cx="280.4" cy="395.8" r="3.9"/>
      <circle class="st1" cx="494.3" cy="314.7" r="4" transform="translate(104.5 752.2) rotate(-80.8)"/>
      <circle class="st1" cx="390.6" cy="520.4" r="4"/>
      <circle class="st1" cx="327.7" cy="297.2" r="4"/>
      <circle class="st1" cx="526.2" cy="420.1" r="4.1"/>
      <circle class="st1" cx="295.3" cy="463.8" r="4.1"/>
      <circle class="st1" cx="436.9" cy="274.4" r="4.1"/>
      <circle class="st1" cx="460.6" cy="511.2" r="4.2"/>
      <circle class="st1" cx="282" cy="351.6" r="4.2"/>
      <circle class="st1" cx="523" cy="348.6" r="4.2"/>
      <circle class="st1" cx="346.2" cy="514.6" r="4.3"/>
      <circle class="st1" cx="364.6" cy="271.3" r="4.3"/>
      <circle class="st1" cx="516.3" cy="464.3" r="4.3"/>
      <circle class="st1" cx="272.6" cy="424.2" r="4.4"/>
      <circle class="st1" cx="480.6" cy="288.4" r="4.4"/>
      <circle class="st1" cx="418.6" cy="530.5" r="4.4"/>
      <circle class="st1" cx="300.1" cy="308.8" r="4.4"/>
      <circle class="st1" cx="538.6" cy="392.7" r="4.5"/>
      <circle class="st1" cx="304.8" cy="492.5" r="4.5"/>
      <circle class="st1" cx="410.4" cy="259.7" r="4.5"/>
      <circle class="st1" cx="490.2" cy="504" r="4.6"/>
      <circle class="st1" cx="265.1" cy="377.1" r="4.6"/>
      <circle class="st1" cx="518.1" cy="318.3" r="4.6"/>
      <circle class="st1" cx="370.5" cy="533.7" r="4.7"/>
      <circle class="st1" cx="333.6" cy="273.8" r="4.7"/>
      <circle class="st1" cx="537.5" cy="441.4" r="4.7"/>
      <circle class="st1" cx="272.6" cy="455.6" r="4.7"/>
      <circle class="st1" cx="459.3" cy="265.2" r="4.8"/>
      <circle class="st1" cx="450.1" cy="533.1" r="4.8"/>
      <circle class="st1" cx="275.1" cy="328.3" r="4.8"/>
      <circle class="st1" cx="543.8" cy="361.2" r="4.9"/>
      <circle class="st1" cx="322.3" cy="519.2" r="4.9"/>
      <circle class="st1" cx="379.2" cy="251.9" r="4.9"/>
      <circle class="st1" cx="518.5" cy="488.5" r="4.9"/>
      <circle class="st1" cx="254.7" cy="407.8" r="5"/>
      <circle class="st1" cx="505" cy="288.5" r="5"/>
      <circle class="st1" cx="400.5" cy="546.7" r="5"/>
      <circle class="st1" cx="302.6" cy="284.5" r="5.1"/>
      <circle class="st1" cx="553" cy="412.4" r="5.1"/>
      <circle class="st1" cx="280.8" cy="487.6" r="5.1"/>
      <circle class="st1" cx="431.4" cy="247.2" r="5.1"/>
      <circle class="st1" cx="483" cy="527.4" r="5.2"/>
      <circle class="st1" cx="254.6" cy="354.9" r="5.2"/>
      <circle class="st1" cx="540.9" cy="327.7" r="5.2"/>
      <circle class="st1" cx="347.3" cy="542" r="5.2"/>
      <circle class="st1" cx="345.3" cy="252" r="5.3"/>
      <circle class="st1" cx="543.5" cy="465.4" r="5.3"/>
      <circle class="st1" cx="252" cy="441.8" r="5.3"/>
      <circle class="st1" cx="483.8" cy="261.5" r="5.4"/>
      <circle class="st1" cx="434.4" cy="552.3" r="5.4"/>
      <circle class="st1" cx="273.8" cy="303.5" r="5.4"/>
      <circle class="st1" cx="561.5" cy="378.8" r="5.4"/>
      <circle class="st1" cx="297.4" cy="518.2" r="5.5"/>
      <circle class="st1" cx="398.4" cy="235.9" r="5.5"/>
      <circle class="st1" cx="515.1" cy="513.3" r="5.5"/>
      <circle class="st1" cx="240.5" cy="387.1" r="5.5"/>
      <circle class="st1" cx="529.4" cy="294.3" r="5.6"/>
      <circle class="st1" cx="378.5" cy="558.9" r="5.6"/>
      <circle class="st1" cx="310.8" cy="260.7" r="5.6"/>
      <circle class="st1" cx="563.1" cy="435.5" r="5.6"/>
      <circle class="st1" cx="257.8" cy="477.2" r="5.7"/>
      <circle class="st1" cx="455.5" cy="239.4" r="5.7"/>
      <circle class="st1" cx="470.4" cy="549.4" r="5.7"/>
      <circle class="st1" cx="249.1" cy="330.1" r="5.8"/>
      <circle class="st1" cx="561.6" cy="342.4" r="5.8"/>
      <circle class="st1" cx="322" cy="545.1" r="5.8"/>
      <circle class="st1" cx="361.9" cy="232.6" r="5.8"/>
      <circle class="st1" cx="544.2" cy="491" r="5.9"/>
      <circle class="st1" cx="234.2" cy="423.4" r="5.9"/>
      <circle class="st1" cx="509.4" cy="263.2" r="5.9"/>
      <circle class="st1" cx="414.3" cy="568.3" r="5.9"/>
      <circle class="st1" cx="277.9" cy="278.1" r="6"/>
      <circle class="st1" cx="575.6" cy="400.3" r="6"/>
      <circle class="st1" cx="272.4" cy="511.7" r="6"/>
      <circle class="st1" cx="421.3" cy="223.8" r="6"/>
      <circle class="st1" cx="506.3" cy="537.7" r="6.1"/>
      <circle class="st1" cx="230.6" cy="363.1" r="6.1"/>
      <circle class="st1" cx="552.9" cy="305.5" r="6.1"/>
      <circle class="st1" cx="353.5" cy="566.5" r="6.1"/>
      <circle class="st1" cx="324.1" cy="238.2" r="6.2"/>
      <circle class="st1" cx="568.3" cy="461.2" r="6.2"/>
      <circle class="st1" cx="236.6" cy="461.8" r="6.2"/>
      <circle class="st1" cx="481.6" cy="236.5" r="6.2"/>
      <circle class="st1" cx="453" cy="569.2" r="6.3"/>
      <circle class="st1" cx="248.7" cy="303.7" r="6.3"/>
      <circle class="st1" cx="579.8" cy="361.6" r="6.3"/>
      <circle class="st1" cx="295.6" cy="543.1" r="6.3"/>
      <circle class="st1" cx="382.8" cy="216.3" r="6.4"/>
      <circle class="st1" cx="539.7" cy="517.2" r="6.4"/>
      <circle class="st1" cx="219.8" cy="401" r="6.4"/>
      <circle class="st1" cx="535.2" cy="270.1" r="6.4"/>
      <circle class="st1" cx="390.6" cy="580.6" r="6.4"/>
      <circle class="st1" cx="287.2" cy="253" r="6.5"/>
      <circle class="st1" cx="585.6" cy="425.2" r="6.5"/>
      <circle class="st1" cx="248.2" cy="500" r="6.5"/>
      <circle class="st1" cx="447.1" cy="216.1" r="6.5"/>
      <circle class="st1" cx="492.4" cy="560.8" r="6.6"/>
      <circle class="st1" cx="225.3" cy="336.5" r="6.6"/>
      <circle class="st1" cx="574.8" cy="321.5" r="6.6"/>
      <circle class="st1" cx="326.5" cy="569.4" r="6.6"/>
      <circle class="st1" cx="342.2" cy="217.9" r="6.7"/>
      <circle class="st1" cx="568.7" cy="488.4" r="6.7"/>
      <circle class="st1" cx="217.9" cy="441.8" r="6.7"/>
      <circle class="st1" cx="508.9" cy="238.6" r="6.7"/>
      <circle class="st1" cx="431.4" cy="586" r="6.8"/>
      <circle class="st1" cx="253.4" cy="276.6" r="6.8"/>
      <circle class="st1" cx="594.6" cy="384.8" r="6.8"/>
      <circle class="st1" cx="269" cy="535.9" r="6.8"/>
      <circle class="st1" cx="407.4" cy="203.7" r="6.8"/>
      <circle class="st1" cx="530.1" cy="543.1" r="6.9"/>
      <circle class="st1" cx="209.4" cy="375.2" r="6.9"/>
      <circle class="st1" cx="560.2" cy="282.2" r="6.9"/>
      <circle class="st1" cx="363.9" cy="588.6" r="6.9"/>
      <circle class="st1" cx="301.5" cy="229" r="7"/>
      <circle class="st1" cx="591.2" cy="452.6" r="7"/>
      <circle class="st1" cx="225.6" cy="483.5" r="7"/>
      <circle class="st1" cx="475" cy="213" r="7"/>
      <circle class="st1" cx="473.8" cy="581.9" r="7"/>
      <circle class="st1" cx="224.8" cy="308.4" r="7.1"/>
      <circle class="st1" cx="594.1" cy="342" r="7.1"/>
      <circle class="st1" cx="298.3" cy="567.3" r="7.1"/>
      <circle class="st1" cx="364.4" cy="200.4" r="7.1"/>
      <circle class="st1" cx="564" cy="516.4" r="7.2"/>
      <circle class="st1" cx="202.5" cy="418" r="7.2"/>
      <circle class="st1" cx="536.4" cy="245.9" r="7.2"/>
      <circle class="st1" cx="406.1" cy="599.2" r="7.2"/>
      <circle class="st1" cx="263.1" cy="249.8" r="7.2"/>
      <circle class="st1" cx="605.5" cy="411.3" r="7.3"/>
      <circle class="st1" cx="243" cy="523.7" r="7.3"/>
      <circle class="st1" cx="434.8" cy="195.2" r="7.3"/>
      <circle class="st1" cx="515.5" cy="567.9" r="7.3"/>
      <circle class="st1" cx="203.5" cy="347" r="7.4"/>
      <circle class="st1" cx="583.7" cy="299" r="7.4"/>
      <circle class="st1" cx="335.2" cy="592" r="7.4"/>
      <circle class="st1" cx="320.5" cy="207.1" r="7.4"/>
      <circle class="st1" cx="591.9" cy="481.7" r="7.4"/>
      <circle class="st1" cx="205.4" cy="462.5" r="7.5"/>
      <circle class="st1" cx="504.1" cy="214.9" r="7.5"/>
      <circle class="st1" cx="451" cy="600.2" r="7.5"/>
      <circle class="st1" cx="229.4" cy="279.5" r="7.5"/>
      <circle class="st1" cx="610.3" cy="366.5" r="7.5"/>
      <circle class="st1" cx="269.8" cy="560.1" r="7.6"/>
      <circle class="st1" cx="390.4" cy="186.5" r="7.6"/>
      <circle class="st1" cx="554.2" cy="544.2" r="7.6"/>
      <circle class="st1" cx="190.9" cy="390.8" r="7.6"/>
      <circle class="st1" cx="563.3" cy="258.2" r="7.7"/>
      <circle class="st1" cx="377.9" cy="608.3" r="7.7"/>
      <circle class="st1" cx="277.9" cy="224" r="7.7"/>
      <circle class="st1" cx="612" cy="440.4" r="7.7"/>
      <circle class="st1" cx="218.6" cy="506.6" r="7.7"/>
      <circle class="st1" cx="464.5" cy="191.3" r="7.8"/>
      <circle class="st1" cx="496.2" cy="590.8" r="7.8"/>
      <circle class="st1" cx="202.3" cy="317.1" r="7.8"/>
      <circle class="st1" cx="604.8" cy="320.4" r="7.8"/>
      <circle class="st1" cx="305.1" cy="590.5" r="7.8"/>
      <circle class="st1" cx="343.8" cy="188" r="7.9"/>
      <circle class="st1" cx="587.7" cy="511.6" r="7.9"/>
      <circle class="st1" cx="188.4" cy="437.5" r="7.9"/>
      <circle class="st1" cx="533.5" cy="221.9" r="7.9"/>
      <circle class="st1" cx="424.4" cy="614.9" r="7.9"/>
      <circle class="st1" cx="239" cy="250.6" r="8"/>
      <circle class="st1" cx="622.7" cy="394.3" r="8"/>
      <circle class="st1" cx="241.9" cy="547.9" r="8"/>
      <circle class="st1" cx="419.3" cy="176.7" r="8"/>
      <circle class="st1" cx="539.5" cy="571" r="8"/>
      <circle class="st1" cx="183.7" cy="361" r="8.1"/>
      <circle class="st1" cx="588.8" cy="275.4" r="8.1"/>
      <circle class="st1" cx="347.4" cy="612.8" r="8.1"/>
      <circle class="st1" cx="297.4" cy="200.1" r="8.1"/>
      <circle class="st1" cx="613.7" cy="471.2" r="8.1"/>
      <circle class="st1" cx="196.5" cy="485" r="8.2"/>
      <circle class="st1" cx="495.4" cy="192.3" r="8.2" transform="translate(226.2 650.6) rotate(-80.8)"/>
      <circle class="st1" cx="472.6" cy="611" r="8.2"/>
      <circle class="st1" cx="206.1" cy="286.2" r="8.2"/>
      <circle class="st1" cx="622.8" cy="345.8" r="8.2"/>
      <circle class="st1" cx="274.6" cy="583.8" r="8.3"/>
      <circle class="st1" cx="370.8" cy="172.2" r="8.3"/>
      <circle class="st1" cx="578.3" cy="541.4" r="8.3"/>
      <circle class="st1" cx="175.1" cy="409.1" r="8.3"/>
      <circle class="st1" cx="562.6" cy="234" r="8.3"/>
      <circle class="st1" cx="394.8" cy="625.6" r="8.4"/>
      <circle class="st1" cx="253.7" cy="222.7" r="8.4"/>
      <circle class="st1" cx="630.7" cy="424.9" r="8.4"/>
      <circle class="st1" cx="215.3" cy="530.7" r="8.4"/>
      <circle class="st1" cx="450.6" cy="171.4" r="8.4"/>
      <circle class="st1" cx="519.9" cy="596.1" r="8.5"/>
      <circle class="st1" cx="181.3" cy="329.3" r="8.5"/>
      <circle class="st1" cx="612" cy="297.1" r="8.5"/>
      <circle class="st1" cx="315.5" cy="612.4" r="8.5"/>
      <circle class="st1" cx="321.2" cy="178.8" r="8.5"/>
      <circle class="st1" cx="610.5" cy="503" r="8.6"/>
      <circle class="st1" cx="177.4" cy="459.3" r="8.6"/>
      <circle class="st1" cx="526.9" cy="198.5" r="8.6"/>
      <circle class="st1" cx="445.2" cy="627.7" r="8.6"/>
      <circle class="st1" cx="215.1" cy="255.3" r="8.6"/>
      <circle class="st1" cx="637.1" cy="374.7" r="8.7"/>
      <circle class="st1" cx="244.5" cy="572.1" r="8.7"/>
      <circle class="st1" cx="401" cy="160.6" r="8.7"/>
      <circle class="st1" cx="563.9" cy="570.4" r="8.7"/>
      <circle class="st1" cx="166.1" cy="377.9" r="8.7"/>
      <circle class="st1" cx="590.3" cy="251" r="8.8"/>
      <circle class="st1" cx="362.9" cy="631.8" r="8.8"/>
      <circle class="st1" cx="273.2" cy="196.6" r="8.8" transform="translate(35.4 434.7) rotate(-80.8)"/>
      <circle class="st1" cx="633.9" cy="457.4" r="8.8"/>
      <circle class="st1" cx="191" cy="508.9" r="8.8"/>
      <circle class="st1" cx="483.3" cy="171.1" r="8.8"/>
      <circle class="st1" cx="495.9" cy="618.4" r="8.9"/>
      <circle class="st1" cx="183.9" cy="296.5" r="8.9"/>
      <circle class="st1" cx="632.3" cy="323.1" r="8.9"/>
      <circle class="st1" cx="283" cy="606.9" r="8.9" transform="translate(-342.4 846.2) rotate(-85.9)"/>
      <circle class="st1" cx="349" cy="161" r="8.9"/>
      <circle class="st1" cx="602" cy="535" r="9"/>
      <circle class="st1" cx="162" cy="429.9" r="9"/>
      <circle class="st1" cx="558.1" cy="209.8" r="9"/>
      <circle class="st1" cx="414.5" cy="640.4" r="9"/>
      <circle class="st1" cx="229.2" cy="225.1" r="9"/>
      <circle class="st1" cx="647.1" cy="406.5" r="9"/>
      <circle class="st1" cx="215.7" cy="555.3" r="9.1"/>
      <circle class="st1" cx="433.6" cy="153.5" r="9.1"/>
      <circle class="st1" cx="544.5" cy="597.8" r="9.1"/>
      <circle class="st1" cx="162" cy="344.6" r="9.1"/>
      <circle class="st1" cx="615.8" cy="272.8" r="9.1"/>
      <circle class="st1" cx="329.2" cy="632.9" r="9.2"/>
      <circle class="st1" cx="297.2" cy="173" r="9.2"/>
      <circle class="st1" cx="632.1" cy="491.1" r="9.2"/>
      <circle class="st1" cx="169.5" cy="482.7" r="9.2"/>
      <circle class="st1" cx="516.8" cy="175.9" r="9.2"/>
      <circle class="st1" cx="467.9" cy="637.5" r="9.3"/>
      <circle class="st1" cx="191.7" cy="263.5" r="9.3"/>
      <circle class="st1" cx="648.8" cy="352.9" r="9.3"/>
      <circle class="st1" cx="250.7" cy="596.1" r="9.3"/>
      <circle class="st1" cx="380.1" cy="147.1" r="9.3"/>
      <circle class="st1" cx="588.3" cy="566.3" r="9.3"/>
      <circle class="st1" cx="150.9" cy="397.5" r="9.4"/>
      <circle class="st1" cx="588.2" cy="226.2" r="9.4"/>
      <circle class="st1" cx="381.2" cy="648.6" r="9.4"/>
      <circle class="st1" cx="248.3" cy="196.6" r="9.4"/>
      <circle class="st1" cx="652.2" cy="440.5" r="9.4"/>
      <circle class="st1" cx="188.9" cy="533.7" r="9.5"/>
      <circle class="st1" cx="468.1" cy="151.4" r="9.5"/>
      <circle class="st1" cx="520.5" cy="622.6" r="9.5"/>
      <circle class="st1" cx="162.9" cy="310" r="9.5"/>
      <circle class="st1" cx="638.5" cy="299" r="9.5"/>
      <circle class="st1" cx="294.8" cy="628.9" r="9.5"/>
      <circle class="st1" cx="325.4" cy="152.7" r="9.6"/>
      <circle class="st1" cx="625" cy="525.1" r="9.6"/>
      <circle class="st1" cx="151.8" cy="452.7" r="9.6"/>
      <circle class="st1" cx="550.2" cy="186" r="9.6"/>
      <circle class="st1" cx="436.4" cy="652.6" r="9.6"/>
      <circle class="st1" cx="204.8" cy="231" r="9.7"/>
      <circle class="st1" cx="661" cy="385.7" r="9.7"/>
      <circle class="st1" cx="219.5" cy="580.1" r="9.7"/>
      <circle class="st1" cx="414" cy="137.8" r="9.7"/>
      <circle class="st1" cx="569.6" cy="596.1" r="9.7"/>
      <circle class="st1" cx="144.7" cy="362.9" r="9.7"/>
      <circle class="st1" cx="616.3" cy="247.6" r="9.8"/>
      <circle class="st1" cx="346" cy="651.8" r="9.8"/>
      <circle class="st1" cx="272.2" cy="170.4" r="9.8" transform="translate(60.3 411.8) rotate(-80.8)"/>
      <circle class="st1" cx="652.3" cy="476" r="9.8"/>
      <circle class="st1" cx="164.9" cy="507.5" r="9.8"/>
      <circle class="st1" cx="503.5" cy="154.5" r="9.8"/>
      <circle class="st1" cx="492.2" cy="644.3" r="9.9"/>
      <circle class="st1" cx="169.2" cy="275" r="9.9"/>
      <circle class="st1" cx="657.6" cy="329.1" r="9.9"/>
      <circle class="st1" cx="260.3" cy="619.5" r="9.9"/>
      <circle class="st1" cx="357.2" cy="136.3" r="9.9"/>
      <circle class="st1" cx="612.5" cy="558.7" r="10"/>
      <circle class="st1" cx="138.2" cy="419.5" r="10"/>
      <circle class="st1" cx="582.7" cy="201.5" r="10"/>
      <circle class="st1" cx="402" cy="663.1" r="10"/>
      <circle class="st1" cx="223.1" cy="200" r="10"/>
      <circle class="st1" cx="668.5" cy="421" r="10"/>
      <circle class="st1" cx="190.1" cy="559.1" r="10.1"/>
      <circle class="st1" cx="450" cy="133.5" r="10.1"/>
      <circle class="st1" cx="546" cy="623.5" r="10.1"/>
      <circle class="st1" cx="143.6" cy="326.6" r="10.1"/>
      <circle class="st1" cx="641.6" cy="273.7" r="10.1"/>
      <circle class="st1" cx="309.6" cy="649.7" r="10.1"/>
      <circle class="st1" cx="300.4" cy="147.5" r="10.2"/>
      <circle class="st1" cx="646.9" cy="512.1" r="10.2"/>
      <circle class="st1" cx="144.4" cy="477.2" r="10.2"/>
      <circle class="st1" cx="539" cy="163" r="10.2"/>
      <circle class="st1" cx="460.2" cy="662" r="10.2"/>
      <circle class="st1" cx="180.9" cy="240.2" r="10.2"/>
      <circle class="st1" cx="672.4" cy="362.7" r="10.3"/>
      <circle class="st1" cx="226.6" cy="604.8" r="10.3"/>
      <circle class="st1" cx="392.1" cy="124.5" r="10.3"/>
      <circle class="st1" cx="594.8" cy="591" r="10.3"/>
      <circle class="st1" cx="129.5" cy="383.6" r="10.3"/>
      <circle class="st1" cx="613.4" cy="222.1" r="10.3"/>
      <circle class="st1" cx="365.4" cy="668.7" r="10.4"/>
      <circle class="st1" cx="246.4" cy="171.2" r="10.4"/>
      <circle class="st1" cx="670.8" cy="458" r="10.4"/>
      <circle class="st1" cx="163.4" cy="533.3" r="10.4" transform="translate(-20.3 6.7) rotate(-2.2)"/>
      <circle class="st1" cx="487.1" cy="134.5" r="10.4"/>
      <circle class="st1" cx="517.8" cy="647.9" r="10.4"/>
      <circle class="st1" cx="147.9" cy="289.6" r="10.5"/>
      <circle class="st1" cx="663.4" cy="303.9" r="10.5"/>
      <circle class="st1" cx="273" cy="642.1" r="10.5"/>
      <circle class="st1" cx="332.6" cy="128.3" r="10.5"/>
      <circle class="st1" cx="636.1" cy="547.9" r="10.5"/>
      <circle class="st1" cx="128.2" cy="443.4" r="10.6"/>
      <circle class="st1" cx="573.9" cy="177" r="10.6"/>
      <circle class="st1" cx="425" cy="675.2" r="10.6"/>
      <circle class="st1" cx="198" cy="206.7" r="10.6"/>
      <circle class="st1" cx="682.5" cy="399.1" r="10.6"/>
      <circle class="st1" cx="194.6" cy="584.7" r="10.6"/>
      <circle class="st1" cx="429.3" cy="117.6" r="10.7"/>
      <circle class="st1" cx="571.9" cy="621.2" r="10.7"/>
      <circle class="st1" cx="126" cy="345.9" r="10.7"/>
      <circle class="st1" cx="641.5" cy="247.5" r="10.7"/>
      <circle class="st1" cx="327.4" cy="668.8" r="10.7"/>
      <circle class="st1" cx="274.4" cy="145.4" r="10.7"/>
      <circle class="st1" cx="667.6" cy="496" r="10.7"/>
      <circle class="st1" cx="140.1" cy="503.1" r="10.8"/>
      <circle class="st1" cx="524.7" cy="141.1" r="10.8"/>
      <circle class="st1" cx="485.6" cy="668.5" r="10.8"/>
      <circle class="st1" cx="157.8" cy="252.6" r="10.8"/>
      <circle class="st1" cx="681.1" cy="337.9" r="10.8"/>
      <circle class="st1" cx="237" cy="628.9" r="10.8"/>
      <circle class="st1" cx="368.1" cy="113.7" r="10.9"/>
      <circle class="st1" cx="619.8" cy="582.7" r="10.9"/>
      <circle class="st1" cx="116.7" cy="406.7" r="10.9"/>
      <circle class="st1" cx="607.2" cy="196.4" r="10.9"/>
      <circle class="st1" cx="387.3" cy="683.4" r="10.9"/>
      <circle class="st1" cx="220.3" cy="175.1" r="10.9"/>
      <circle class="st1" cx="687.3" cy="437.4" r="11"/>
      <circle class="st1" cx="165.1" cy="559.6" r="11"/>
      <circle class="st1" cx="468" cy="116.2" r="11"/>
      <circle class="st1" cx="544.3" cy="648.5" r="11"/>
      <circle class="st1" cx="128" cy="307.1" r="11"/>
      <circle class="st1" cx="666.2" cy="277.6" r="11"/>
      <circle class="st1" cx="288.8" cy="663.4" r="11.1" transform="translate(-393.3 904.4) rotate(-85.9)"/>
      <circle class="st1" cx="306.5" cy="123.3" r="11.1"/>
      <circle class="st1" cx="658.7" cy="534" r="11.1"/>
      <circle class="st1" cx="120.9" cy="469" r="11.1"/>
      <circle class="st1" cx="561.9" cy="153.3" r="11.1"/>
      <circle class="st1" cx="449.9" cy="684.6" r="11.1"/>
      <circle class="st1" cx="173.3" cy="216.6" r="11.2"/>
      <circle class="st1" cx="694" cy="375" r="11.2"/>
      <circle class="st1" cx="202.4" cy="610.2" r="11.2"/>
      <circle class="st1" cx="406.3" cy="104.1" r="11.2"/>
      <circle class="st1" cx="598.1" cy="615.6" r="11.2"/>
      <circle class="st1" cx="110.5" cy="367.7" r="11.2"/>
      <circle class="st1" cx="638.1" cy="221" r="11.2"/>
      <circle class="st1" cx="347.8" cy="686.1" r="11.3"/>
      <circle class="st1" cx="247.6" cy="146.4" r="11.3"/>
      <circle class="st1" cx="686.6" cy="477.1" r="11.3"/>
      <circle class="st1" cx="138.9" cy="529.9" r="11.3"/>
      <circle class="st1" cx="507.5" cy="120.5" r="11.3"/>
      <circle class="st1" cx="512.2" cy="672" r="11.3"/>
      <circle class="st1" cx="135.7" cy="268" r="11.4"/>
      <circle class="st1" cx="686.9" cy="311.6" r="11.4"/>
      <circle class="st1" cx="250.5" cy="652.2" r="11.4"/>
      <circle class="st1" cx="342.4" cy="105.7" r="11.4"/>
      <circle class="st1" cx="644.2" cy="571.3" r="11.4"/>
      <circle class="st1" cx="106.5" cy="431.6" r="11.4"/>
      <circle class="st1" cx="597.8" cy="171.1" r="11.5"/>
      <circle class="st1" cx="411.3" cy="695.7" r="11.5"/>
      <circle class="st1" cx="194.2" cy="182.3" r="11.5"/>
      <circle class="st1" cx="701.7" cy="414.5" r="11.5"/>
      <circle class="st1" cx="170" cy="586.3" r="11.5"/>
      <circle class="st1" cx="446.4" cy="99.9" r="11.5"/>
      <circle class="st1" cx="571.3" cy="645.8" r="11.6"/>
      <circle class="st1" cx="109.9" cy="327.3" r="11.6"/>
      <circle class="st1" cx="665.9" cy="250.4" r="11.6"/>
      <circle class="st1" cx="307.4" cy="683.2" r="11.6"/>
      <circle class="st1" cx="279.4" cy="121.3" r="11.6"/>
      <circle class="st1" cx="680.1" cy="517.1" r="11.6"/>
      <circle class="st1" cx="116.6" cy="495.9" r="11.6"/>
      <circle class="st1" cx="546.9" cy="130.5" r="11.7"/>
      <circle class="st1" cx="476.4" cy="691.2" r="11.7"/>
      <circle class="st1" cx="149.2" cy="229.6" r="11.7"/>
      <circle class="st1" cx="702.9" cy="349.2" r="11.7"/>
      <circle class="st1" cx="213.3" cy="635.3" r="11.7"/>
      <circle class="st1" cx="381.2" cy="93" r="11.7"/>
      <circle class="st1" cx="624" cy="606.9" r="11.8"/>
      <circle class="st1" cx="97.3" cy="391.7" r="11.8"/>
      <circle class="st1" cx="631.6" cy="194.4" r="11.8"/>
      <circle class="st1" cx="370.7" cy="701.4" r="11.8"/>
      <circle class="st1" cx="220.4" cy="150.6" r="11.8"/>
      <circle class="st1" cx="703.8" cy="455.6" r="11.8"/>
      <circle class="st1" cx="140.7" cy="557.3" r="11.8"/>
      <circle class="st1" cx="487.6" cy="101.5" r="11.9" transform="translate(270.9 549.9) rotate(-76)"/>
      <circle class="st1" cx="539.8" cy="672.5" r="11.9"/>
    </g>
  </g>
</svg>