<?xml version="1.0" encoding="UTF-8"?>
<svg id="Layer_1" xmlns="http://www.w3.org/2000/svg" version="1.1" viewBox="0 0 72 72">
  <!-- Generator: Adobe Illustrator 30.1.0, SVG Export Plug-In . SVG Version: 2.1.1 Build 136)  -->
  <defs>
    <style>
      .st0 {
        fill: #1e1e1e;
      }
    </style>
  </defs>
  <path class="st0" d="M65.9,30.6c0,.5-.2,1-.7,1.3l-24.9,19c-.5.4-1.2.5-1.8.2-.6-.3-.9-.9-.9-1.5v-9.5c-16.4.4-23.8,6.5-29.7,15.5-.3.5-.8.8-1.4.8s-.3,0-.5,0c-.7-.2-1.2-.9-1.2-1.6,0-22,10.7-33,32.8-33.5v-9.6c0-.6.4-1.2.9-1.5.6-.3,1.2-.2,1.8.2l24.9,19c.4.3.7.8.7,1.3Z"/>
</svg>